<?xml version="1.0" encoding="UTF-8"?>
<svg id="Layer_1" xmlns="http://www.w3.org/2000/svg" version="1.1" viewBox="0 0 179 29.8">
  <!-- Generator: Adobe Illustrator 29.1.0, SVG Export Plug-In . SVG Version: 2.1.0 Build 142)  -->
  <defs>
    <style>
      .st0 {
        fill: #fff;
      }

      .st1 {
        fill: #eee;
      }
    </style>
  </defs>
  <rect x="98.8" y="1.1" width="54.6" height="27.6" rx="3.7" ry="3.7"/>
  <path class="st1" d="M12.7,6.9l1.3,1.3v13.4l-1.3,1.3h-6.8V6.9h6.8ZM11,20.3l.3-.3v-10.2l-.3-.3h-2.4v10.8h2.4Z"/>
  <path class="st1" d="M15.8,22.9V6.9h7.6v2.6h-5v4h3.7v2.6h-3.7v4.2h5v2.6h-7.6Z"/>
  <path class="st1" d="M31.1,19.5h-3.3l-.7,3.4h-2.7l3.8-16h2.6l3.8,16h-2.7l-.7-3.4ZM30.5,16.9l-1.1-5.4-1.1,5.4h2.2Z"/>
  <path class="st1" d="M43,22.9h-7.3V6.9h2.7v13.4h4.6v2.6Z"/>
  <path class="st1" d="M44.3,22.9V6.9h7.6v2.6h-5v4h3.7v2.6h-3.7v4.2h5v2.6h-7.6Z"/>
  <path class="st1" d="M53.5,22.9V6.9h6.9l1.3,1.3v7.1l-1.3,1.3,1.3,6.2h-2.6l-1.3-6.2h-1.6v6.2h-2.7ZM58.7,14.1l.3-.3v-3.9l-.3-.3h-2.6v4.6h2.6Z"/>
  <path class="st1" d="M68.5,11.5v-1.7l-.3-.3h-2l-.3.3v3.3l.3.3h3.7l1.3,1.3v6.8l-1.3,1.3h-5.4l-1.3-1.3v-3.3h2.7v1.7l.3.3h2l.3-.3v-3.6l-.3-.3h-3.7l-1.3-1.3v-6.5l1.3-1.3h5.4l1.3,1.3v3.3h-2.7Z"/>
  <path class="st1" d="M75.6,6.9v6.6h3v-6.6h2.7v16h-2.7v-6.8h-3v6.8h-2.7V6.9h2.7Z"/>
  <path class="st1" d="M83.1,22.9V6.9h2.7v16h-2.7Z"/>
  <path class="st1" d="M87.6,22.9V6.9h6.8l1.3,1.3v7.1l-1.3,1.3h-4.1v6.2h-2.7ZM92.7,14.1l.3-.3v-3.9l-.3-.3h-2.4v4.6h2.4Z"/>
  <path class="st0" d="M110.3,8.2v13.4l-1.3,1.3h-5.4l-1.3-1.3v-13.4l1.3-1.3h5.4l1.3,1.3ZM107.3,9.5h-2l-.3.3v10.2l.3.3h2l.3-.3v-10.2l-.3-.3Z"/>
  <path class="st0" d="M112.1,22.9V6.9h6.8l1.3,1.3v7.1l-1.3,1.3h-4.1v6.2h-2.7ZM117.2,14.1l.3-.3v-3.9l-.3-.3h-2.4v4.6h2.4Z"/>
  <path class="st0" d="M126.9,11.5v-1.7l-.3-.3h-2l-.3.3v3.3l.3.3h3.7l1.3,1.3v6.8l-1.3,1.3h-5.4l-1.3-1.3v-3.3h2.7v1.7l.3.3h2l.3-.3v-3.6l-.3-.3h-3.7l-1.3-1.3v-6.5l1.3-1.3h5.4l1.3,1.3v3.3h-2.7Z"/>
</svg>