<?xml version="1.0" encoding="UTF-8"?>
<svg id="Layer_1" xmlns="http://www.w3.org/2000/svg" version="1.1" viewBox="0 0 179 29.8">
  <!-- Generator: Adobe Illustrator 29.1.0, SVG Export Plug-In . SVG Version: 2.1.0 Build 142)  -->
  <defs>
    <style>
      .st0 {
        fill: #ccc;
      }

      .st1 {
        fill: #fff;
      }
    </style>
  </defs>
  <rect x="118.3" y=".6" width="43.6" height="27.6" rx="3.7" ry="3.7"/>
  <path class="st0" d="M11.4,4.4l1.6,1.6v16.7l-1.6,1.6H2.9V4.4h8.5ZM9.3,21.2l.4-.4v-12.7l-.4-.4h-3v13.5h3Z"/>
  <path class="st0" d="M15.3,24.4V4.4h9.5v3.2h-6.2v5h4.6v3.2h-4.6v5.2h6.2v3.2s-9.5,0-9.5,0Z"/>
  <path class="st0" d="M34.4,20h-4.1l-.9,4.2h-3.4l4.7-20h3.2l4.7,20h-3.4l-.9-4.2h-.1ZM33.7,16.9l-1.4-6.7-1.4,6.7h2.7Z"/>
  <path class="st0" d="M49.2,24.4h-9.1V4.4h3.4v16.7h5.7v3.2Z"/>
  <path class="st0" d="M50.8,24.4V4.4h9.5v3.2h-6.2v5h4.6v3.2h-4.6v5.2h6.2v3.2h-9.5Z"/>
  <path class="st0" d="M62.3,24.4V4.4h8.6l1.6,1.6v8.9l-1.6,1.6,1.6,7.7h-3.2l-1.6-7.7h-2v7.7h-3.4ZM68.8,13.4l.4-.4v-4.9l-.4-.4h-3.2v5.7h3.2Z"/>
  <path class="st0" d="M81,10.2v-2.1l-.4-.4h-2.5l-.4.4v4.1l.4.4h4.6l1.6,1.6v8.5l-1.6,1.6h-6.7l-1.6-1.6v-4.1h3.4v2.1l.4.4h2.5l.4-.4v-4.5l-.4-.4h-4.6l-1.6-1.6V6.1l1.6-1.6h6.7l1.6,1.6v4.1s-3.4,0-3.4,0Z"/>
  <path class="st0" d="M89.9,4.4v8.2h3.7V4.4h3.4v20h-3.4v-8.5h-3.7v8.5h-3.4V4.4h3.4Z"/>
  <path class="st0" d="M99.3,24.4V4.4h3.4v20h-3.4Z"/>
  <path class="st0" d="M104.9,24.4V4.4h8.5l1.6,1.6v8.9l-1.6,1.6h-5.1v7.7h-3.4ZM111.2,13.4l.4-.4v-4.9l-.4-.4h-3v5.7h3Z"/>
  <path class="st1" d="M133.2,6.1v16.7l-1.6,1.6h-6.7l-1.6-1.6V6.1l1.6-1.6h6.7l1.6,1.6ZM129.5,7.7h-2.5l-.4.4v12.7l.4.4h2.5l.4-.4v-12.7l-.4-.4Z"/>
  <path class="st1" d="M135.4,24.4V4.4h8.5l1.6,1.6v8.9l-1.6,1.6h-5.1v7.7h-3.4ZM141.8,13.4l.4-.4v-4.9l-.4-.4h-3v5.7h3Z"/>
  <path class="st1" d="M153.9,10.2v-2.1l-.4-.4h-2.5l-.4.4v4.1l.4.4h4.6l1.6,1.6v8.5l-1.6,1.6h-6.7l-1.6-1.6v-4.1h3.4v2.1l.4.4h2.5l.4-.4v-4.5l-.4-.4h-4.6l-1.6-1.6V6.1l1.6-1.6h6.7l1.6,1.6v4.1s-3.4,0-3.4,0Z"/>
</svg>