<?xml version="1.0" encoding="UTF-8"?>
<svg id="Layer_1" xmlns="http://www.w3.org/2000/svg" version="1.1" viewBox="0 0 178 28.8">
  <!-- Generator: Adobe Illustrator 29.1.0, SVG Export Plug-In . SVG Version: 2.1.0 Build 142)  -->
  <defs>
    <style>
      .st0 {
        fill: #fff;
      }
    </style>
  </defs>
  <path d="M11.7,6.4l1.3,1.3v13.4l-1.3,1.3h-6.8V6.4h6.8ZM10,19.8l.3-.3v-10.2l-.3-.3h-2.4v10.8h2.4Z"/>
  <path d="M14.8,22.4V6.4h7.6v2.6h-5v4h3.7v2.6h-3.7v4.2h5v2.6h-7.6Z"/>
  <path d="M30.1,18.9h-3.3l-.7,3.4h-2.7l3.8-16h2.6l3.8,16h-2.7l-.7-3.4ZM29.6,16.4l-1.1-5.4-1.1,5.4h2.2Z"/>
  <path d="M42,22.4h-7.3V6.4h2.7v13.4h4.6v2.6Z"/>
  <path d="M43.3,22.4V6.4h7.6v2.6h-5v4h3.7v2.6h-3.7v4.2h5v2.6h-7.6Z"/>
  <path d="M52.5,22.4V6.4h6.9l1.3,1.3v7.1l-1.3,1.3,1.3,6.2h-2.6l-1.3-6.2h-1.6v6.2h-2.7ZM57.7,13.6l.3-.3v-3.9l-.3-.3h-2.6v4.6h2.6Z"/>
  <path d="M67.5,11v-1.7l-.3-.3h-2l-.3.3v3.3l.3.3h3.7l1.3,1.3v6.8l-1.3,1.3h-5.4l-1.3-1.3v-3.3h2.7v1.7l.3.3h2l.3-.3v-3.6l-.3-.3h-3.7l-1.3-1.3v-6.5l1.3-1.3h5.4l1.3,1.3v3.3h-2.7Z"/>
  <path d="M74.6,6.4v6.6h3v-6.6h2.7v16h-2.7v-6.8h-3v6.8h-2.7V6.4h2.7Z"/>
  <path d="M82.1,22.4V6.4h2.7v16h-2.7Z"/>
  <path d="M86.6,22.4V6.4h6.8l1.3,1.3v7.1l-1.3,1.3h-4.1v6.2h-2.7ZM91.7,13.6l.3-.3v-3.9l-.3-.3h-2.4v4.6h2.4Z"/>
  <rect x="97.2" y=".6" width="54.6" height="27.6" rx="3.7" ry="3.7"/>
  <path class="st0" d="M109.3,7.7v13.4l-1.3,1.3h-5.4l-1.3-1.3V7.7l1.3-1.3h5.4l1.3,1.3ZM106.3,9h-2l-.3.3v10.2l.3.3h2l.3-.3v-10.2l-.3-.3Z"/>
  <path class="st0" d="M111.1,22.4V6.4h6.8l1.3,1.3v7.1l-1.3,1.3h-4.1v6.2h-2.7ZM116.2,13.6l.3-.3v-3.9l-.3-.3h-2.4v4.6h2.4Z"/>
  <path class="st0" d="M125.9,11v-1.7l-.3-.3h-2l-.3.3v3.3l.3.3h3.7l1.3,1.3v6.8l-1.3,1.3h-5.4l-1.3-1.3v-3.3h2.7v1.7l.3.3h2l.3-.3v-3.6l-.3-.3h-3.7l-1.3-1.3v-6.5l1.3-1.3h5.4l1.3,1.3v3.3h-2.7Z"/>
</svg>