<?xml version="1.0" encoding="UTF-8"?><svg id="Layer_1" xmlns="http://www.w3.org/2000/svg" viewBox="0 0 200 33.85"><defs><style>.cls-1{fill:#fff;}.cls-2{fill:#de3638;}.cls-3{fill:#f3ea31;}.cls-4{fill:#eaeaea;}</style></defs><path class="cls-1" d="M123.92.9c-9.4,0-17.04,4.17-17.04,9.3s7.65,9.31,17.04,9.31,17.04-4.17,17.04-9.31S133.31.9,123.92.9M123.91,15.41c-5.5,0-9.97-2.34-9.97-5.21s4.47-5.21,9.97-5.21,9.97,2.34,9.97,5.21-4.47,5.21-9.97,5.21"/><path class="cls-2" d="M123.92,1.56c-9.03,0-16.38,3.88-16.38,8.64s7.35,8.64,16.38,8.64,16.38-3.88,16.38-8.64-7.35-8.64-16.38-8.64M123.91,16.07c-5.86,0-10.64-2.63-10.64-5.87s4.77-5.87,10.64-5.87,10.63,2.63,10.63,5.87-4.77,5.87-10.63,5.87"/><path class="cls-2" d="M76.9,1.02h-12.64c-3.3,0-6.07,0-7.3,0-.75,0-1.36.59-1.38,1.34l-.02.71c-.01.38.13.75.4,1.03.27.28.63.43,1.01.43h14.56c-2.56.85-6.88,2.29-7.99,2.69-.35.12-.74.25-1.15.39-3.33,1.1-8.35,2.78-8.22,6.59.12,3.29,1.97,4.96,5.51,4.96h.06s16.18-.01,20.67-.01c1.7,0,3.08-1.38,3.08-3.08V6.62c0-2.39-3.26-5.6-6.59-5.6M72.04,15l-8.28-.02c-1.04,0-2.26-.85-2.26-1.93,0-.78.5-1.47,1.25-1.71,1-.32,2.36-.76,3.78-1.22,2.27-.73,4.7-1.52,6.13-1.97.09-.03.19-.04.3-.04.29,0,.61.11.86.28.14.1.37.31.37.6v4.21c.01.39-.17.78-.5,1.11-.43.43-1.05.7-1.63.7"/><path class="cls-1" d="M76.9,1.68h-12.64c-3.3,0-6.07,0-7.3,0-.39,0-.71.31-.72.7l-.02.71c0,.2.07.4.21.55.14.15.33.23.54.23h16.7v.64c-.08.03-8.32,2.76-9.91,3.33-.35.12-.74.26-1.17.4-3.14,1.04-7.88,2.62-7.76,5.94.1,2.95,1.65,4.32,4.85,4.32h.06s16.18-.01,20.67-.01c1.33,0,2.42-1.09,2.42-2.42V6.62c0-2.38-3.48-4.94-5.93-4.94M74.14,14.77c-.56.56-1.34.89-2.1.89l-8.29-.02c-1.38,0-2.92-1.11-2.92-2.59,0-1.07.68-2.01,1.7-2.34,1-.32,2.36-.76,3.78-1.22,2.27-.73,4.7-1.52,6.13-1.97.54-.17,1.24-.03,1.75.34.41.3.64.7.64,1.13v4.21c.01.57-.24,1.13-.69,1.58"/><path class="cls-2" d="M108,1.03h-27.25c-.77,0-1.39.66-1.39,1.47v.72c0,.79.63,1.43,1.41,1.43h7.24l-.41,12.3c.04.87.65,2.13,1.69,2.2h8.1c1.11,0,1.85-1.22,1.85-2.35,0-.17-.71-9.48-.91-12.15h9.65c.78,0,1.41-.64,1.41-1.43v-.72c0-.77-.63-1.45-1.39-1.47"/><path class="cls-1" d="M107.99,1.69h-27.23c-.39,0-.73.37-.73.81v.72c0,.42.34.77.75.77h7.92l-.44,12.96c.03.59.46,1.51,1.06,1.55h8.07c.77,0,1.19-1,1.19-1.69,0-.25-.62-8.26-.93-12.46l-.03-.35h10.36c.41,0,.75-.35.75-.77v-.72c0-.42-.35-.8-.74-.81"/><path class="cls-1" d="M197.59,1.03h-27.25c-.77,0-1.39.66-1.39,1.47v.72c0,.79.63,1.43,1.41,1.43h7.24l-.42,12.3c.04.87.65,2.13,1.69,2.2h8.1c1.11,0,1.85-1.22,1.85-2.35,0-.17-.71-9.48-.91-12.15h9.65c.78,0,1.41-.64,1.41-1.43v-.72c0-.77-.63-1.45-1.39-1.47"/><path class="cls-2" d="M197.57,1.69h-27.23c-.39,0-.73.37-.73.81v.72c0,.42.34.77.75.77h7.92l-.44,12.96c.03.59.46,1.51,1.06,1.55h8.07c.77,0,1.19-1,1.19-1.69,0-.25-.61-8.26-.93-12.46l-.03-.35h10.36c.41,0,.75-.35.75-.77v-.72c0-.42-.35-.8-.74-.81"/><path class="cls-1" d="M157.45,1.05l-.21.21.02.16c.02.17.03.24,2.59,1.88q.42.27.41.7v.17c0,.62,0,1.53.01,2.5.01,2.19.04,5.19,0,5.56-.09.74-1.17,1.11-1.97,1.33-1.77.47-3.63.54-5.29.19-1.21-.25-2.65-.84-2.65-2.2v-6.97c0-.12,0-.23,0-.34.01-.74.02-1.44-.47-2.21-.7-1.09-1.31-1.14-2.33-1.14h-10.37l-.1.09c-.49.48,1.35,2.6,1.37,2.62.17.19.41.24.58.27.04,0,.08.02.12.03.1.42.13,1.99.14,2.69,0,.3.01.55.02.7.02.51.02,1.05.02,1.62,0,2.45,0,5.22,1.6,7.03,1.81,2.04,4.65,2.83,6.71,3.14,1.78.26,3.76.4,5.9.4.77,0,1.58-.02,2.41-.05,2.06-.09,4.73-.31,7.1-1.32,2.17-.92,4.42-3.11,4.52-5.52.09-1.4.04-4.52,0-6.79-.01-.93-.03-1.82-.02-2.2.2-.05.41-.08.63-.12.39-.06.8-.12,1.2-.31.44-.2.73-.48.86-.83.02-.04.12-.4.2-.64,0-.03.02-.05.02-.07l1.5-.58h-14.5Z"/><path class="cls-2" d="M158.63,1.71c.61.41,1.37.9,1.57,1.03.67.43.72.59.72,1.27v.17c0,.62,0,1.52.01,2.5.02,3.07.03,5.26-.01,5.64-.15,1.28-1.83,1.72-2.46,1.89-1.08.28-2.18.43-3.26.43-.8,0-1.59-.08-2.34-.24-2.05-.43-3.17-1.44-3.17-2.84v-6.97c0-.12,0-.23,0-.35.01-.72.02-1.24-.37-1.85-.51-.8-.83-.84-1.78-.84h-9.75c.32.53.99,1.44,1.14,1.61.02.02.14.04.21.06.13.02.27.05.4.13.26.15.34.43.4,3.22,0,.29.01.53.02.69.02.52.02,1.07.02,1.65,0,2.33,0,4.97,1.44,6.59,1.68,1.89,4.36,2.63,6.32,2.92,1.75.26,3.7.39,5.8.39.76,0,1.56-.02,2.38-.05,2-.08,4.6-.3,6.87-1.26,1.98-.84,4.02-2.8,4.11-4.95.09-1.38.04-4.48,0-6.74q-.04-2.54.06-2.67l.06-.08.09-.03c.32-.11.64-.16.95-.21.36-.06.71-.11,1.02-.25.27-.12.44-.28.51-.46.01-.04.07-.22.13-.4h-11.1Z"/><path class="cls-2" d="M31.49,1.11s-26.06-.01-26.24-.01C2.87,1.09,1,2.42,1,4.12v13.71c0,.78.63,1.41,1.41,1.41h10.8c.78,0,1.41-.63,1.41-1.41v-3.92h13.47c.78,0,1.41-.63,1.41-1.41v-1.57c0-.78-.63-1.41-1.41-1.41h-13.47v-4.36h16.87c.78,0,1.41-.63,1.41-1.41v-1.24c0-.78-.63-1.41-1.41-1.41"/><path class="cls-1" d="M31.49,1.77s-26.06-.01-26.24-.01c-1.98,0-3.59,1.06-3.59,2.37v13.71c0,.41.34.75.75.75h10.8c.41,0,.75-.34.75-.75v-4.58h14.13c.41,0,.75-.34.75-.75v-1.57c0-.41-.34-.75-.75-.75h-14.13v-5.68h17.53c.41,0,.75-.34.75-.75v-1.24c0-.41-.34-.75-.75-.75"/><path class="cls-2" d="M54.92,14.16h-11.11V2.33c0-.78-.63-1.42-1.41-1.42h-7.88c-.78,0-1.41.64-1.41,1.42v15.32c0,.78.63,1.42,1.41,1.42h20.4c.78,0,1.41-.64,1.41-1.42v-2.07c0-.78-.63-1.42-1.41-1.42"/><path class="cls-1" d="M54.92,14.82h-11.77V2.33c0-.42-.34-.76-.75-.76h-7.88c-.41,0-.75.34-.75.76v15.32c0,.42.34.76.75.76h20.4c.41,0,.75-.34.75-.76v-2.07c0-.42-.34-.76-.75-.76"/><polygon points="128.36 6.08 109.42 11.34 111.87 8.32 81.13 15.66 105.4 13.21 100.4 20.77 128.36 6.08"/><polygon class="cls-3" points="123.7 7.93 101.99 19.34 106.1 13.12 106.47 12.57 105.81 12.63 88.99 14.34 110.47 9.2 108.57 11.54 107.95 12.3 108.89 12.04 123.7 7.93"/><polygon class="cls-4" points="1 25.74 4.93 25.74 7.04 30.35 9.15 25.74 13.06 25.74 13.06 32.85 10.92 32.85 10.98 27.52 10.62 27.52 7.94 32.85 6.14 32.85 3.46 27.52 3.08 27.52 3.14 32.85 1 32.85 1 25.74"/><path class="cls-4" d="M27.75,25.63c1.53,0,2.59.04,3.17.11.83.11,1.34.5,1.53,1.18.13.46.19,1.25.19,2.36s-.06,1.9-.19,2.36c-.19.68-.7,1.07-1.53,1.18-.58.08-1.62.11-3.15.11s-2.61-.04-3.19-.11c-.83-.11-1.34-.51-1.53-1.18-.13-.46-.19-1.27-.19-2.41s.06-1.85.19-2.32c.19-.68.7-1.07,1.53-1.18.57-.08,1.63-.11,3.17-.11M27.76,27.48c-1.15,0-1.84.03-2.07.09-.27.07-.44.22-.53.47-.08.24-.13.72-.13,1.44,0,.43.02.75.07.94.09.36.35.57.79.62.32.04.95.06,1.88.06.87,0,1.45-.02,1.74-.05.29-.03.5-.1.64-.21.12-.1.21-.24.26-.43.04-.19.07-.5.07-.93,0-.51-.02-.89-.05-1.13-.03-.24-.1-.42-.19-.54-.11-.15-.3-.25-.57-.28-.26-.04-.9-.05-1.91-.05"/><polygon class="cls-4" points="42.07 25.74 50.67 25.74 50.67 27.55 47.51 27.55 47.51 32.85 45.23 32.85 45.23 27.55 42.07 27.55 42.07 25.74"/><path class="cls-4" d="M64.99,25.63c1.53,0,2.59.04,3.17.11.83.11,1.34.5,1.53,1.18.13.46.19,1.25.19,2.36s-.06,1.9-.19,2.36c-.19.68-.7,1.07-1.53,1.18-.58.08-1.62.11-3.15.11s-2.61-.04-3.19-.11c-.83-.11-1.34-.51-1.53-1.18-.13-.46-.19-1.27-.19-2.41s.06-1.85.19-2.32c.19-.68.7-1.07,1.53-1.18.57-.08,1.63-.11,3.17-.11M64.99,27.48c-1.15,0-1.84.03-2.07.09-.27.07-.44.22-.53.47-.08.24-.13.72-.13,1.44,0,.43.02.75.07.94.09.36.35.57.79.62.32.04.95.06,1.88.06.87,0,1.45-.02,1.74-.05.29-.03.5-.1.64-.21.12-.1.21-.24.26-.43.04-.19.07-.5.07-.93,0-.51-.02-.89-.05-1.13-.03-.24-.1-.42-.19-.54-.11-.15-.3-.25-.57-.28-.26-.04-.9-.05-1.91-.05"/><path class="cls-4" d="M79.69,32.85v-7.11h5.23c1.23,0,1.96.02,2.21.04.24.02.48.1.7.24.27.16.46.39.56.67.1.29.15.74.15,1.35,0,.52-.03.9-.1,1.14-.06.24-.18.44-.36.58-.19.16-.48.26-.86.32.45.03.78.16.98.39.11.13.19.3.22.49.03.19.05.6.05,1.21v.66h-2.13v-.38c0-.4-.01-.68-.04-.85-.03-.17-.08-.3-.16-.39-.08-.08-.19-.14-.33-.16-.14-.02-.43-.03-.88-.03h-3.05v1.81h-2.17ZM81.85,29.26h3.05c.53-.01.85-.02.95-.03.1,0,.19-.03.26-.08.09-.06.16-.15.2-.26.04-.12.06-.29.06-.53s-.02-.41-.07-.52c-.04-.11-.12-.2-.23-.25-.08-.03-.17-.06-.27-.06-.11,0-.41-.01-.91-.02h-3.04v1.75Z"/><path class="cls-4" d="M97.99,30.49h2.1c0,.35.07.58.21.68.1.07.24.1.4.12s.68.02,1.56.03c.92,0,1.47,0,1.65-.02.18,0,.33-.03.44-.08.16-.07.24-.24.24-.54,0-.21-.06-.35-.17-.42-.11-.07-.34-.11-.69-.12-.27,0-.83-.02-1.7-.06-.89-.04-1.46-.07-1.73-.07-.52-.02-.92-.07-1.2-.15-.28-.08-.5-.21-.65-.4-.27-.31-.4-.82-.4-1.53,0-.8.15-1.37.46-1.7.23-.26.59-.42,1.07-.49.48-.07,1.46-.11,2.94-.11,1.04,0,1.78.03,2.2.09.65.09,1.1.27,1.34.54.24.27.36.73.36,1.38,0,.06,0,.17,0,.33h-2.1c0-.2-.02-.33-.05-.41-.03-.07-.08-.13-.15-.18-.09-.05-.26-.09-.49-.11-.24-.02-.74-.02-1.5-.02-.92,0-1.48.03-1.68.09-.2.06-.3.22-.3.48s.1.4.3.46c.17.04.93.09,2.3.13,1.15.03,1.92.07,2.3.12.39.05.69.14.92.27.26.16.44.37.55.64.11.27.16.66.16,1.17,0,.67-.09,1.17-.27,1.5-.13.24-.32.42-.56.54-.24.12-.58.2-1.02.24-.47.04-1.34.06-2.62.06-1.07,0-1.86-.03-2.37-.08-.51-.06-.89-.15-1.15-.3-.27-.15-.45-.35-.55-.6-.1-.25-.15-.63-.15-1.14v-.33Z"/><path class="cls-4" d="M116.4,32.85v-7.11h4.87c.97,0,1.59.02,1.86.06.7.09,1.18.32,1.43.68.25.36.37,1,.37,1.92s-.1,1.49-.31,1.85c-.14.24-.33.42-.58.55-.25.12-.59.21-1.03.26-.31.03-.88.05-1.73.05h-2.72v1.74h-2.17ZM118.57,29.33h2.71c.49,0,.79-.01.9-.02.11,0,.21-.04.29-.08.11-.06.19-.15.23-.27.04-.12.06-.31.06-.56s-.03-.44-.08-.56c-.05-.12-.14-.2-.28-.25-.1-.04-.48-.06-1.14-.07h-2.71v1.82Z"/><path class="cls-4" d="M139.34,25.63c1.53,0,2.59.04,3.17.11.83.11,1.34.5,1.53,1.18.13.46.19,1.25.19,2.36s-.06,1.9-.19,2.36c-.19.68-.7,1.07-1.53,1.18-.58.08-1.62.11-3.15.11s-2.61-.04-3.19-.11c-.83-.11-1.34-.51-1.53-1.18-.13-.46-.19-1.27-.19-2.41s.06-1.85.19-2.32c.19-.68.7-1.07,1.53-1.18.57-.08,1.63-.11,3.17-.11M139.35,27.48c-1.15,0-1.84.03-2.07.09-.27.07-.44.22-.53.47-.08.24-.12.72-.12,1.44,0,.43.02.75.07.94.09.36.35.57.79.62.32.04.95.06,1.88.06.87,0,1.45-.02,1.74-.05.29-.03.5-.1.64-.21.12-.1.21-.24.26-.43.04-.19.07-.5.07-.93,0-.51-.02-.89-.05-1.13-.03-.24-.1-.42-.19-.54-.11-.15-.3-.25-.57-.28-.26-.04-.9-.05-1.91-.05"/><path class="cls-4" d="M154.04,32.85v-7.11h5.23c1.23,0,1.96.02,2.21.04.24.02.48.1.7.24.27.16.46.39.56.67.1.29.15.74.15,1.35,0,.52-.03.9-.1,1.14-.06.24-.18.44-.36.58-.19.16-.48.26-.86.32.45.03.78.16.98.39.11.13.19.3.22.49.03.19.05.6.05,1.21v.66h-2.13v-.38c0-.4-.02-.68-.04-.85-.03-.17-.08-.3-.16-.39-.08-.08-.19-.14-.33-.16-.14-.02-.44-.03-.88-.03h-3.05v1.81h-2.17ZM156.21,29.26h3.05c.53-.01.85-.02.95-.03.1,0,.19-.03.26-.08.09-.06.16-.15.2-.26s.06-.29.06-.53-.02-.41-.06-.52c-.04-.11-.12-.2-.23-.25-.08-.03-.17-.06-.27-.06-.11,0-.41-.01-.91-.02h-3.04v1.75Z"/><polygon class="cls-4" points="172.31 25.74 180.91 25.74 180.91 27.55 177.75 27.55 177.75 32.85 175.47 32.85 175.47 27.55 172.31 27.55 172.31 25.74"/><path class="cls-4" d="M190.3,30.49h2.1c0,.35.07.58.21.68.1.07.24.1.4.12.16.01.68.02,1.56.03.92,0,1.47,0,1.65-.02.18,0,.33-.03.44-.08.16-.07.24-.24.24-.54,0-.21-.06-.35-.17-.42-.11-.07-.34-.11-.69-.12-.27,0-.83-.02-1.7-.06-.89-.04-1.46-.07-1.73-.07-.52-.02-.92-.07-1.2-.15-.28-.08-.5-.21-.65-.4-.27-.31-.4-.82-.4-1.53,0-.8.15-1.37.46-1.7.23-.26.59-.42,1.07-.49.48-.07,1.46-.11,2.94-.11,1.04,0,1.78.03,2.2.09.65.09,1.1.27,1.34.54.24.27.36.73.36,1.38,0,.06,0,.17,0,.33h-2.1c0-.2-.02-.33-.05-.41-.03-.07-.08-.13-.15-.18-.09-.05-.26-.09-.5-.11-.24-.02-.74-.02-1.5-.02-.92,0-1.48.03-1.68.09-.2.06-.3.22-.3.48s.1.4.3.46c.17.04.93.09,2.3.13,1.15.03,1.92.07,2.3.12.39.05.69.14.92.27.26.16.45.37.55.64s.16.66.16,1.17c0,.67-.09,1.17-.27,1.5-.14.24-.32.42-.57.54-.24.12-.58.2-1.02.24-.47.04-1.34.06-2.62.06-1.07,0-1.86-.03-2.37-.08-.51-.06-.89-.15-1.15-.3-.27-.15-.45-.35-.55-.6-.1-.25-.15-.63-.15-1.14v-.33Z"/></svg>