<?xml version="1.0" encoding="UTF-8"?><svg id="a" xmlns="http://www.w3.org/2000/svg" viewBox="0 0 288 70.89"><defs><style>.d{fill:#f3ea31;}.d,.e,.f{stroke:#fff;stroke-miterlimit:10;}.f,.g{fill:#e00;}.h{fill:#edfd07;}</style></defs><g id="b"><path class="e" d="M177.92,13.68c-13.33,0-24.17,5.92-24.17,13.2s10.84,13.2,24.17,13.2,24.17-5.92,24.17-13.2-10.84-13.2-24.17-13.2M177.91,34.26c-7.8,0-14.15-3.32-14.15-7.39s6.35-7.39,14.15-7.39,14.15,3.32,14.15,7.39-6.35,7.39-14.15,7.39"/><path class="f" d="M177.92,14.62c-12.81,0-23.24,5.5-23.24,12.26s10.42,12.26,23.24,12.26,23.24-5.5,23.24-12.26-10.42-12.26-23.24-12.26M177.91,35.19c-8.32,0-15.08-3.74-15.08-8.33s6.77-8.33,15.08-8.33,15.08,3.74,15.08,8.33-6.77,8.33-15.08,8.33"/><path class="f" d="M111.24,13.86h-17.92c-4.68,0-8.61,0-10.36,0-1.07,0-1.92.84-1.96,1.9l-.03,1c-.02.55.18,1.06.56,1.45.38.39.89.61,1.44.61h20.64c-3.63,1.21-9.76,3.25-11.34,3.81-.49.17-1.04.36-1.64.56-4.72,1.57-11.84,3.94-11.65,9.35.17,4.67,2.8,7.03,7.82,7.03h.09s22.95-.02,29.32-.02c2.41,0,4.37-1.96,4.37-4.37v-13.39c0-3.39-4.62-7.94-9.34-7.94M104.35,33.68l-11.75-.03c-1.48,0-3.2-1.2-3.2-2.74,0-1.11.71-2.09,1.77-2.43,1.42-.46,3.34-1.08,5.36-1.73,3.21-1.04,6.66-2.16,8.69-2.8.13-.04.27-.06.43-.06.42,0,.87.15,1.21.4.19.14.52.44.52.85v5.97c.02.55-.24,1.11-.71,1.58-.61.61-1.5.99-2.32.99"/><path class="e" d="M111.24,14.8h-17.92c-4.68,0-8.61,0-10.36,0-.56,0-1,.44-1.02,1l-.03,1c0,.29.1.57.3.77.2.21.47.32.76.32h23.68v.91c-.12.04-11.8,3.92-14.06,4.72-.5.18-1.06.36-1.66.56-4.45,1.48-11.18,3.71-11.01,8.43.15,4.18,2.34,6.13,6.88,6.13h.08s22.95-.02,29.32-.02c1.89,0,3.43-1.54,3.43-3.43v-13.39c0-3.38-4.94-7-8.41-7M107.33,33.35c-.79.79-1.9,1.27-2.97,1.27l-11.76-.03c-1.95,0-4.13-1.58-4.13-3.68,0-1.52.97-2.85,2.42-3.32,1.42-.46,3.34-1.08,5.36-1.73,3.21-1.04,6.66-2.16,8.69-2.8.76-.24,1.76-.04,2.48.48.58.43.91,1,.9,1.61v5.97c.02.8-.34,1.6-.98,2.24"/><path class="f" d="M155.35,13.87h-38.64c-1.09,0-1.97.94-1.97,2.09v1.02c0,1.12.9,2.03,2,2.03h10.27l-.59,17.45c.06,1.24.92,3.02,2.4,3.12h11.48c1.57,0,2.63-1.72,2.63-3.33,0-.25-1-13.44-1.29-17.24h13.68c1.1,0,2-.91,2-2.03v-1.02c0-1.09-.89-2.05-1.97-2.09"/><path class="e" d="M155.33,14.81h-38.62c-.56,0-1.03.53-1.03,1.15v1.02c0,.6.48,1.09,1.06,1.09h11.24l-.62,18.37c.04.83.65,2.13,1.5,2.2h11.45c1.09,0,1.69-1.42,1.69-2.4-.01-.35-.87-11.71-1.33-17.67l-.04-.5h14.69c.59,0,1.06-.49,1.06-1.09v-1.02c0-.59-.49-1.13-1.05-1.15"/><path class="e" d="M282.39,13.87h-38.64c-1.09,0-1.97.94-1.97,2.09v1.02c0,1.12.9,2.03,2,2.03h10.27l-.59,17.45c.06,1.24.92,3.02,2.4,3.12h11.48c1.57,0,2.63-1.72,2.63-3.33,0-.25-1-13.44-1.29-17.24h13.68c1.1,0,2-.91,2-2.03v-1.02c0-1.09-.89-2.05-1.97-2.09"/><path class="f" d="M282.38,14.81h-38.62c-.56,0-1.03.53-1.03,1.15v1.02c0,.6.48,1.09,1.06,1.09h11.24l-.62,18.37c.04.83.65,2.13,1.5,2.2h11.45c1.09,0,1.69-1.42,1.69-2.4-.01-.35-.87-11.71-1.33-17.67l-.04-.5h14.69c.59,0,1.06-.49,1.06-1.09v-1.02c0-.59-.49-1.13-1.05-1.15"/><path class="e" d="M225.47,13.9l-.3.29.02.22c.03.25.04.34,3.68,2.67q.59.38.59,1v.25c0,.88,0,2.16.02,3.55.02,3.11.05,7.37-.01,7.88-.13,1.06-1.66,1.58-2.8,1.88-2.52.67-5.15.76-7.51.26-1.71-.36-3.75-1.19-3.75-3.11v-9.88c0-.17,0-.33,0-.48.01-1.05.03-2.04-.67-3.14-.99-1.54-1.86-1.62-3.31-1.62h-14.71l-.14.13c-.7.68,1.91,3.68,1.94,3.71.24.27.58.33.82.38.06.01.12.02.17.04.14.6.18,2.83.2,3.81,0,.42.02.77.02,1,.03.72.03,1.49.03,2.3,0,3.47-.01,7.4,2.27,9.97,2.57,2.89,6.59,4.02,9.52,4.45,2.53.37,5.34.56,8.36.56,1.09,0,2.24-.02,3.42-.07,2.92-.12,6.7-.44,10.07-1.87,3.08-1.3,6.26-4.41,6.4-7.83.13-1.99.06-6.4.01-9.63-.02-1.32-.04-2.58-.04-3.13.29-.07.58-.12.9-.17.56-.09,1.14-.18,1.7-.43.62-.29,1.03-.68,1.21-1.18.02-.06.18-.56.28-.91.01-.04.02-.07.03-.1l2.13-.82h-20.56Z"/><path class="f" d="M227.15,14.84c.86.58,1.94,1.28,2.23,1.46.95.6,1.03.84,1.02,1.79v.24c0,.88,0,2.16.02,3.55.03,4.35.05,7.47-.02,8-.22,1.81-2.6,2.44-3.49,2.68-1.53.4-3.09.61-4.63.61-1.14,0-2.25-.11-3.31-.34-2.9-.61-4.5-2.04-4.5-4.03v-9.88c0-.17,0-.33,0-.49.01-1.02.02-1.76-.52-2.62-.73-1.13-1.18-1.19-2.52-1.19h-13.82c.46.75,1.4,2.04,1.62,2.29.03.03.19.06.29.08.18.03.38.07.57.18.36.21.49.61.56,4.57,0,.41.02.76.02.98.03.74.03,1.52.03,2.34,0,3.3-.01,7.04,2.04,9.35,2.38,2.68,6.18,3.73,8.96,4.14,2.48.37,5.25.55,8.22.55,1.08,0,2.22-.02,3.38-.07,2.84-.12,6.52-.43,9.75-1.79,2.8-1.19,5.71-3.98,5.83-7.02.13-1.96.06-6.35.01-9.56q-.06-3.6.08-3.78l.09-.11.13-.05c.45-.16.91-.23,1.35-.3.52-.08,1.01-.16,1.45-.36.39-.18.63-.4.72-.65.02-.05.1-.31.18-.57h-15.74Z"/><path class="f" d="M46.84,13.98s-36.95-.02-37.21-.02c-3.38,0-6.02,1.89-6.02,4.3v19.44c0,1.1.9,2,2,2h15.31c1.1,0,2-.9,2-2v-5.55h19.1c1.1,0,2-.9,2-2v-2.22c0-1.1-.9-2-2-2h-19.1v-6.18h23.93c1.1,0,2-.9,2-2v-1.76c0-1.1-.9-2-2-2"/><path class="e" d="M46.84,14.91s-36.95-.02-37.21-.02c-2.8,0-5.08,1.51-5.08,3.36v19.44c0,.59.48,1.06,1.06,1.06h15.31c.59,0,1.06-.48,1.06-1.06v-6.49h20.04c.59,0,1.06-.48,1.06-1.06v-2.22c0-.59-.48-1.06-1.06-1.06h-20.04v-8.06h24.86c.59,0,1.06-.48,1.06-1.06v-1.76c0-.59-.48-1.06-1.06-1.06"/><path class="f" d="M80.07,32.49h-15.76V15.72c0-1.11-.9-2.01-2-2.01h-11.18c-1.1,0-2,.9-2,2.01v21.73c0,1.11.9,2.01,2,2.01h28.94c1.1,0,2-.9,2-2.01v-2.94c0-1.11-.9-2.01-2-2.01"/><path class="e" d="M80.07,33.43h-16.7V15.71c0-.59-.48-1.08-1.06-1.08h-11.18c-.59,0-1.06.48-1.06,1.08v21.73c0,.59.48,1.08,1.06,1.08h28.94c.59,0,1.06-.48,1.06-1.08v-2.94c0-.59-.48-1.08-1.06-1.08"/><polygon class="e" points="184.22 21.04 157.35 28.5 160.83 24.21 117.24 34.62 151.66 31.14 144.57 41.87 184.22 21.04"/><polygon class="d" points="177.61 23.66 146.82 39.83 152.65 31.01 153.17 30.23 152.24 30.33 128.38 32.74 158.84 25.46 156.15 28.78 155.27 29.86 156.61 29.49 177.61 23.66"/><polygon class="e" points="3.6 48.91 9.17 48.91 12.17 55.45 15.16 48.91 20.7 48.91 20.7 58.99 17.68 58.99 17.75 51.44 17.25 51.44 13.44 58.99 10.9 58.99 7.09 51.44 6.55 51.44 6.63 58.99 3.6 58.99 3.6 48.91"/><path class="e" d="M41.54,48.76c2.18,0,3.67.05,4.49.16,1.18.16,1.9.72,2.16,1.68.18.66.27,1.77.27,3.34s-.09,2.69-.27,3.35c-.27.96-.99,1.52-2.16,1.68-.82.11-2.3.16-4.46.16s-3.7-.05-4.52-.16c-1.18-.16-1.9-.72-2.16-1.68-.18-.66-.27-1.8-.27-3.41s.09-2.63.27-3.29c.27-.96.99-1.52,2.16-1.68.81-.11,2.31-.16,4.49-.16M41.55,51.38c-1.63,0-2.61.04-2.94.13-.38.1-.63.32-.75.66-.12.34-.18,1.02-.18,2.04,0,.62.03,1.06.1,1.34.12.51.5.8,1.12.88.46.06,1.35.09,2.67.09,1.24,0,2.06-.02,2.47-.07.41-.04.71-.14.91-.29.18-.14.3-.34.36-.61.06-.27.1-.71.1-1.32,0-.72-.02-1.26-.07-1.6-.05-.34-.14-.59-.27-.77-.16-.22-.43-.35-.8-.4-.37-.05-1.27-.08-2.7-.08"/><polygon class="e" points="61.84 48.91 74.04 48.91 74.04 51.48 69.56 51.48 69.56 58.99 66.33 58.99 66.33 51.48 61.84 51.48 61.84 48.91"/><path class="e" d="M94.35,48.76c2.18,0,3.67.05,4.49.16,1.18.16,1.9.72,2.16,1.68.18.66.27,1.77.27,3.34s-.09,2.69-.27,3.35c-.27.96-.99,1.52-2.16,1.68-.82.11-2.3.16-4.46.16s-3.7-.05-4.52-.16c-1.18-.16-1.9-.72-2.16-1.68-.18-.66-.27-1.8-.27-3.41s.09-2.63.27-3.29c.27-.96.99-1.52,2.16-1.68.81-.11,2.31-.16,4.49-.16M94.35,51.38c-1.63,0-2.61.04-2.94.13-.38.1-.63.32-.75.66-.12.34-.18,1.02-.18,2.04,0,.62.03,1.06.1,1.34.12.51.5.8,1.12.88.46.06,1.35.09,2.67.09,1.24,0,2.06-.02,2.47-.07.41-.04.71-.14.91-.29.18-.14.3-.34.36-.61.06-.27.1-.71.1-1.32,0-.72-.02-1.26-.07-1.6-.05-.34-.14-.59-.27-.77-.16-.22-.43-.35-.8-.4-.37-.05-1.27-.08-2.7-.08"/><path class="e" d="M115.19,58.99v-10.08h7.42c1.74,0,2.79.02,3.13.05.35.03.68.15,1,.34.38.23.65.55.79.96.14.41.21,1.04.21,1.92,0,.73-.05,1.27-.14,1.62-.09.34-.26.62-.51.83-.27.22-.68.37-1.23.46.64.05,1.11.23,1.39.55.16.19.27.42.31.7.04.27.07.85.07,1.72v.94h-3.03v-.54c0-.56-.02-.96-.06-1.2-.04-.24-.12-.42-.23-.55-.11-.12-.27-.19-.47-.23-.2-.03-.62-.05-1.25-.05h-4.33v2.56h-3.07ZM118.26,53.91h4.32c.75-.02,1.2-.03,1.35-.04.15-.01.27-.05.37-.11.13-.08.23-.21.28-.37.05-.17.08-.42.08-.75s-.03-.58-.09-.74c-.06-.16-.17-.28-.32-.35-.11-.05-.24-.08-.39-.09-.15,0-.58-.02-1.29-.02h-4.31v2.48Z"/><path class="e" d="M141.15,55.65h2.98c0,.5.1.82.3.96.15.09.34.15.57.17s.97.03,2.21.04c1.3,0,2.08-.01,2.34-.03.26-.01.47-.05.62-.11.23-.09.34-.35.34-.76,0-.3-.08-.5-.24-.6-.16-.1-.49-.16-.98-.17-.38,0-1.18-.03-2.41-.09-1.26-.06-2.07-.09-2.45-.1-.74-.02-1.31-.09-1.7-.21-.4-.12-.71-.3-.93-.56-.38-.43-.57-1.16-.57-2.17,0-1.14.22-1.94.65-2.41.33-.36.84-.6,1.52-.7.68-.1,2.07-.15,4.17-.15,1.48,0,2.52.04,3.12.13.93.13,1.56.39,1.91.77.34.39.52,1.04.52,1.95,0,.08,0,.24,0,.47h-2.98c0-.28-.03-.47-.07-.58-.04-.1-.11-.19-.22-.25-.13-.08-.37-.13-.7-.15-.33-.02-1.04-.03-2.13-.03-1.31,0-2.1.04-2.39.12-.29.08-.43.31-.43.68s.14.57.43.65c.24.06,1.32.12,3.26.18,1.63.05,2.72.11,3.27.17.55.07.99.19,1.31.38.37.22.63.52.78.91.15.39.23.94.23,1.67,0,.95-.13,1.66-.38,2.12-.19.34-.46.59-.8.76-.34.17-.82.28-1.44.34-.66.06-1.9.09-3.71.09-1.52,0-2.64-.04-3.36-.12-.72-.08-1.27-.22-1.63-.42-.38-.22-.64-.5-.79-.86-.14-.35-.22-.89-.22-1.62v-.47Z"/><path class="e" d="M167.26,58.99v-10.08h6.9c1.37,0,2.25.03,2.64.08,1,.13,1.68.45,2.03.96.35.51.53,1.42.53,2.73s-.15,2.12-.44,2.62c-.2.34-.47.6-.83.77-.35.18-.84.3-1.46.37-.44.05-1.25.07-2.45.07h-3.86v2.47h-3.07ZM170.33,54.01h3.84c.7,0,1.13-.02,1.28-.03.15-.01.29-.05.42-.12.16-.08.27-.21.32-.38.06-.17.09-.44.09-.79s-.04-.62-.11-.79c-.08-.17-.21-.29-.39-.36-.14-.05-.67-.09-1.61-.1h-3.84v2.58Z"/><path class="e" d="M199.8,48.76c2.18,0,3.67.05,4.49.16,1.18.16,1.9.72,2.16,1.68.18.66.27,1.77.27,3.34s-.09,2.69-.27,3.35c-.27.96-.99,1.52-2.16,1.68-.82.11-2.3.16-4.46.16s-3.7-.05-4.52-.16c-1.18-.16-1.9-.72-2.16-1.68-.18-.66-.27-1.8-.27-3.41s.09-2.63.27-3.29c.27-.96.99-1.52,2.16-1.68.81-.11,2.31-.16,4.49-.16M199.81,51.38c-1.63,0-2.61.04-2.94.13-.38.1-.63.32-.75.66-.12.34-.18,1.02-.18,2.04,0,.62.03,1.06.1,1.34.12.51.5.8,1.12.88.46.06,1.35.09,2.67.09,1.24,0,2.06-.02,2.47-.07.41-.04.71-.14.91-.29.18-.14.3-.34.36-.61.06-.27.1-.71.1-1.32,0-.72-.02-1.26-.07-1.6-.05-.34-.14-.59-.27-.77-.16-.22-.43-.35-.81-.4-.37-.05-1.27-.08-2.7-.08"/><path class="e" d="M220.64,58.99v-10.08h7.42c1.74,0,2.79.02,3.13.05.34.03.68.15,1,.34.38.23.65.55.79.96.14.41.21,1.04.21,1.92,0,.73-.05,1.27-.14,1.62-.09.34-.26.62-.51.83-.27.22-.68.37-1.23.46.64.05,1.11.23,1.39.55.16.19.27.42.31.7.04.27.07.85.07,1.72v.94h-3.03v-.54c0-.56-.02-.96-.06-1.2-.04-.24-.12-.42-.23-.55-.11-.12-.27-.19-.47-.23-.2-.03-.62-.05-1.25-.05h-4.33v2.56h-3.07ZM223.71,53.91h4.32c.75-.02,1.2-.03,1.35-.04.15-.01.27-.05.37-.11.13-.08.23-.21.28-.37s.08-.42.08-.75-.03-.58-.09-.74c-.06-.16-.17-.28-.32-.35-.11-.05-.24-.08-.39-.09-.15,0-.58-.02-1.29-.02h-4.31v2.48Z"/><polygon class="e" points="246.54 48.91 258.74 48.91 258.74 51.48 254.26 51.48 254.26 58.99 251.03 58.99 251.03 51.48 246.54 51.48 246.54 48.91"/><path class="e" d="M272.06,55.65h2.98c0,.5.1.82.3.96.15.09.34.15.57.17.23.02.97.03,2.21.04,1.3,0,2.08-.01,2.34-.03.26-.01.47-.05.62-.11.23-.09.34-.35.34-.76,0-.3-.08-.5-.24-.6-.16-.1-.49-.16-.98-.17-.38,0-1.18-.03-2.41-.09-1.26-.06-2.07-.09-2.45-.1-.74-.02-1.31-.09-1.7-.21-.4-.12-.71-.3-.93-.56-.38-.43-.57-1.16-.57-2.17,0-1.14.22-1.94.65-2.41.33-.36.84-.6,1.52-.7.68-.1,2.07-.15,4.17-.15,1.48,0,2.52.04,3.12.13.93.13,1.56.39,1.91.77.34.39.52,1.04.52,1.95,0,.08,0,.24,0,.47h-2.98c0-.28-.03-.47-.07-.58-.04-.1-.11-.19-.22-.25-.13-.08-.37-.13-.7-.15-.33-.02-1.04-.03-2.13-.03-1.31,0-2.1.04-2.39.12-.28.08-.43.31-.43.68s.14.57.43.65c.24.06,1.32.12,3.26.18,1.63.05,2.72.11,3.27.17.55.07.99.19,1.31.38.37.22.63.52.78.91s.23.94.23,1.67c0,.95-.13,1.66-.38,2.12-.19.34-.46.59-.8.76-.34.17-.82.28-1.44.34-.67.06-1.9.09-3.71.09-1.52,0-2.64-.04-3.36-.12-.72-.08-1.27-.22-1.63-.42-.38-.22-.64-.5-.79-.86-.14-.35-.22-.89-.22-1.62v-.47Z"/></g><g id="c"><path d="M177.92,13.68c-13.33,0-24.17,5.92-24.17,13.2s10.84,13.2,24.17,13.2,24.17-5.92,24.17-13.2-10.84-13.2-24.17-13.2M177.91,34.26c-7.8,0-14.15-3.32-14.15-7.39s6.35-7.39,14.15-7.39,14.15,3.32,14.15,7.39-6.35,7.39-14.15,7.39"/><path class="g" d="M177.92,14.62c-12.81,0-23.24,5.5-23.24,12.26s10.42,12.26,23.24,12.26,23.24-5.5,23.24-12.26-10.42-12.26-23.24-12.26M177.91,35.19c-8.32,0-15.08-3.74-15.08-8.33s6.77-8.33,15.08-8.33,15.08,3.74,15.08,8.33-6.77,8.33-15.08,8.33"/><path class="g" d="M111.24,13.86h-17.92c-4.68,0-8.61,0-10.36,0-1.07,0-1.92.84-1.96,1.9l-.03,1c-.02.55.18,1.06.56,1.45.38.39.89.61,1.44.61h20.64c-3.63,1.21-9.76,3.25-11.34,3.81-.49.17-1.04.36-1.64.56-4.72,1.57-11.84,3.94-11.65,9.35.17,4.67,2.8,7.03,7.82,7.03h.09s22.95-.02,29.32-.02c2.41,0,4.37-1.96,4.37-4.37v-13.39c0-3.39-4.62-7.94-9.34-7.94M104.35,33.68l-11.75-.03c-1.48,0-3.2-1.2-3.2-2.74,0-1.11.71-2.09,1.77-2.43,1.42-.46,3.34-1.08,5.36-1.73,3.21-1.04,6.66-2.16,8.69-2.8.13-.04.27-.06.43-.06.42,0,.87.15,1.21.4.19.14.52.44.52.85v5.97c.02.55-.24,1.11-.71,1.58-.61.61-1.5.99-2.32.99"/><path d="M111.24,14.8h-17.92c-4.68,0-8.61,0-10.36,0-.56,0-1,.44-1.02,1l-.03,1c0,.29.1.57.3.77.2.21.47.32.76.32h23.68v.91c-.12.04-11.8,3.92-14.06,4.72-.5.18-1.06.36-1.66.56-4.45,1.48-11.18,3.71-11.01,8.43.15,4.18,2.34,6.13,6.88,6.13h.08s22.95-.02,29.32-.02c1.89,0,3.43-1.54,3.43-3.43v-13.39c0-3.38-4.94-7-8.41-7M107.33,33.35c-.79.79-1.9,1.27-2.97,1.27l-11.76-.03c-1.95,0-4.13-1.58-4.13-3.68,0-1.52.97-2.85,2.42-3.32,1.42-.46,3.34-1.08,5.36-1.73,3.21-1.04,6.66-2.16,8.69-2.8.76-.24,1.76-.04,2.48.48.58.43.91,1,.9,1.61v5.97c.02.8-.34,1.6-.98,2.24"/><path class="g" d="M155.35,13.87h-38.64c-1.09,0-1.97.94-1.97,2.09v1.02c0,1.12.9,2.03,2,2.03h10.27l-.59,17.45c.06,1.24.92,3.02,2.4,3.12h11.48c1.57,0,2.63-1.72,2.63-3.33,0-.25-1-13.44-1.29-17.24h13.68c1.1,0,2-.91,2-2.03v-1.02c0-1.09-.89-2.05-1.97-2.09"/><path d="M155.33,14.81h-38.62c-.56,0-1.03.53-1.03,1.15v1.02c0,.6.48,1.09,1.06,1.09h11.24l-.62,18.37c.04.83.65,2.13,1.5,2.2h11.45c1.09,0,1.69-1.42,1.69-2.4-.01-.35-.87-11.71-1.33-17.67l-.04-.5h14.69c.59,0,1.06-.49,1.06-1.09v-1.02c0-.59-.49-1.13-1.05-1.15"/><path d="M282.39,13.87h-38.64c-1.09,0-1.97.94-1.97,2.09v1.02c0,1.12.9,2.03,2,2.03h10.27l-.59,17.45c.06,1.24.92,3.02,2.4,3.12h11.48c1.57,0,2.63-1.72,2.63-3.33,0-.25-1-13.44-1.29-17.24h13.68c1.1,0,2-.91,2-2.03v-1.02c0-1.09-.89-2.05-1.97-2.09"/><path class="g" d="M282.38,14.81h-38.62c-.56,0-1.03.53-1.03,1.15v1.02c0,.6.48,1.09,1.06,1.09h11.24l-.62,18.37c.04.83.65,2.13,1.5,2.2h11.45c1.09,0,1.69-1.42,1.69-2.4-.01-.35-.87-11.71-1.33-17.67l-.04-.5h14.69c.59,0,1.06-.49,1.06-1.09v-1.02c0-.59-.49-1.13-1.05-1.15"/><path d="M225.47,13.9l-.3.29.02.22c.03.25.04.34,3.68,2.67q.59.38.59,1v.25c0,.88,0,2.16.02,3.55.02,3.11.05,7.37-.01,7.88-.13,1.06-1.66,1.58-2.8,1.88-2.52.67-5.15.76-7.51.26-1.71-.36-3.75-1.19-3.75-3.11v-9.88c0-.17,0-.33,0-.48.01-1.05.03-2.04-.67-3.14-.99-1.54-1.86-1.62-3.31-1.62h-14.71l-.14.13c-.7.68,1.91,3.68,1.94,3.71.24.27.58.33.82.38.06.01.12.02.17.04.14.6.18,2.83.2,3.81,0,.42.02.77.02,1,.03.72.03,1.49.03,2.3,0,3.47-.01,7.4,2.27,9.97,2.57,2.89,6.59,4.02,9.52,4.45,2.53.37,5.34.56,8.36.56,1.09,0,2.24-.02,3.42-.07,2.92-.12,6.7-.44,10.07-1.87,3.08-1.3,6.26-4.41,6.4-7.83.13-1.99.06-6.4.01-9.63-.02-1.32-.04-2.58-.04-3.13.29-.07.58-.12.9-.17.56-.09,1.14-.18,1.7-.43.62-.29,1.03-.68,1.21-1.18.02-.06.18-.56.28-.91.01-.04.02-.07.03-.1l2.13-.82h-20.56Z"/><path class="g" d="M227.15,14.84c.86.58,1.94,1.28,2.23,1.46.95.6,1.03.84,1.02,1.79v.24c0,.88,0,2.16.02,3.55.03,4.35.05,7.47-.02,8-.22,1.81-2.6,2.44-3.49,2.68-1.53.4-3.09.61-4.63.61-1.14,0-2.25-.11-3.31-.34-2.9-.61-4.5-2.04-4.5-4.03v-9.88c0-.17,0-.33,0-.49.01-1.02.02-1.76-.52-2.62-.73-1.13-1.18-1.19-2.52-1.19h-13.82c.46.75,1.4,2.04,1.62,2.29.03.03.19.06.29.08.18.03.38.07.57.18.36.21.49.61.56,4.57,0,.41.02.76.02.98.03.74.03,1.52.03,2.34,0,3.3-.01,7.04,2.04,9.35,2.38,2.68,6.18,3.73,8.96,4.14,2.48.37,5.25.55,8.22.55,1.08,0,2.22-.02,3.38-.07,2.84-.12,6.52-.43,9.75-1.79,2.8-1.19,5.71-3.98,5.83-7.02.13-1.96.06-6.35.01-9.56q-.06-3.6.08-3.78l.09-.11.13-.05c.45-.16.91-.23,1.35-.3.52-.08,1.01-.16,1.45-.36.39-.18.63-.4.72-.65.02-.05.1-.31.18-.57h-15.74Z"/><path class="g" d="M46.84,13.98s-36.95-.02-37.21-.02c-3.38,0-6.02,1.89-6.02,4.3v19.44c0,1.1.9,2,2,2h15.31c1.1,0,2-.9,2-2v-5.55h19.1c1.1,0,2-.9,2-2v-2.22c0-1.1-.9-2-2-2h-19.1v-6.18h23.93c1.1,0,2-.9,2-2v-1.76c0-1.1-.9-2-2-2"/><path d="M46.84,14.91s-36.95-.02-37.21-.02c-2.8,0-5.08,1.51-5.08,3.36v19.44c0,.59.48,1.06,1.06,1.06h15.31c.59,0,1.06-.48,1.06-1.06v-6.49h20.04c.59,0,1.06-.48,1.06-1.06v-2.22c0-.59-.48-1.06-1.06-1.06h-20.04v-8.06h24.86c.59,0,1.06-.48,1.06-1.06v-1.76c0-.59-.48-1.06-1.06-1.06"/><path class="g" d="M80.07,32.49h-15.76V15.72c0-1.11-.9-2.01-2-2.01h-11.18c-1.1,0-2,.9-2,2.01v21.73c0,1.11.9,2.01,2,2.01h28.94c1.1,0,2-.9,2-2.01v-2.94c0-1.11-.9-2.01-2-2.01"/><path d="M80.07,33.43h-16.7V15.71c0-.59-.48-1.08-1.06-1.08h-11.18c-.59,0-1.06.48-1.06,1.08v21.73c0,.59.48,1.08,1.06,1.08h28.94c.59,0,1.06-.48,1.06-1.08v-2.94c0-.59-.48-1.08-1.06-1.08"/><polygon points="184.22 21.04 157.35 28.5 160.83 24.21 117.24 34.62 151.66 31.14 144.57 41.87 184.22 21.04"/><polygon class="h" points="177.61 23.66 146.82 39.83 152.65 31.01 153.17 30.23 152.24 30.33 128.38 32.74 158.84 25.46 156.15 28.78 155.27 29.86 156.61 29.49 177.61 23.66"/><polygon points="3.6 48.91 9.17 48.91 12.17 55.45 15.16 48.91 20.7 48.91 20.7 58.99 17.68 58.99 17.75 51.44 17.25 51.44 13.44 58.99 10.9 58.99 7.09 51.44 6.55 51.44 6.63 58.99 3.6 58.99 3.6 48.91"/><path d="M41.54,48.76c2.18,0,3.67.05,4.49.16,1.18.16,1.9.72,2.16,1.68.18.66.27,1.77.27,3.34s-.09,2.69-.27,3.35c-.27.96-.99,1.52-2.16,1.68-.82.11-2.3.16-4.46.16s-3.7-.05-4.52-.16c-1.18-.16-1.9-.72-2.16-1.68-.18-.66-.27-1.8-.27-3.41s.09-2.63.27-3.29c.27-.96.99-1.52,2.16-1.68.81-.11,2.31-.16,4.49-.16M41.55,51.38c-1.63,0-2.61.04-2.94.13-.38.1-.63.32-.75.66-.12.34-.18,1.02-.18,2.04,0,.62.03,1.06.1,1.34.12.51.5.8,1.12.88.46.06,1.35.09,2.67.09,1.24,0,2.06-.02,2.47-.07.41-.04.71-.14.91-.29.18-.14.3-.34.36-.61.06-.27.1-.71.1-1.32,0-.72-.02-1.26-.07-1.6-.05-.34-.14-.59-.27-.77-.16-.22-.43-.35-.8-.4-.37-.05-1.27-.08-2.7-.08"/><polygon points="61.84 48.91 74.04 48.91 74.04 51.48 69.56 51.48 69.56 58.99 66.33 58.99 66.33 51.48 61.84 51.48 61.84 48.91"/><path d="M94.35,48.76c2.18,0,3.67.05,4.49.16,1.18.16,1.9.72,2.16,1.68.18.66.27,1.77.27,3.34s-.09,2.69-.27,3.35c-.27.96-.99,1.52-2.16,1.68-.82.11-2.3.16-4.46.16s-3.7-.05-4.52-.16c-1.18-.16-1.9-.72-2.16-1.68-.18-.66-.27-1.8-.27-3.41s.09-2.63.27-3.29c.27-.96.99-1.52,2.16-1.68.81-.11,2.31-.16,4.49-.16M94.35,51.38c-1.63,0-2.61.04-2.94.13-.38.1-.63.32-.75.66-.12.34-.18,1.02-.18,2.04,0,.62.03,1.06.1,1.34.12.51.5.8,1.12.88.46.06,1.35.09,2.67.09,1.24,0,2.06-.02,2.47-.07.41-.04.71-.14.91-.29.18-.14.3-.34.36-.61.06-.27.1-.71.1-1.32,0-.72-.02-1.26-.07-1.6-.05-.34-.14-.59-.27-.77-.16-.22-.43-.35-.8-.4-.37-.05-1.27-.08-2.7-.08"/><path d="M115.19,58.99v-10.08h7.42c1.74,0,2.79.02,3.13.05.35.03.68.15,1,.34.38.23.65.55.79.96.14.41.21,1.04.21,1.92,0,.73-.05,1.27-.14,1.62-.09.34-.26.62-.51.83-.27.22-.68.37-1.23.46.64.05,1.11.23,1.39.55.16.19.27.42.31.7.04.27.07.85.07,1.72v.94h-3.03v-.54c0-.56-.02-.96-.06-1.2-.04-.24-.12-.42-.23-.55-.11-.12-.27-.19-.47-.23-.2-.03-.62-.05-1.25-.05h-4.33v2.56h-3.07ZM118.26,53.91h4.32c.75-.02,1.2-.03,1.35-.04.15-.01.27-.05.37-.11.13-.08.23-.21.28-.37.05-.17.08-.42.08-.75s-.03-.58-.09-.74c-.06-.16-.17-.28-.32-.35-.11-.05-.24-.08-.39-.09-.15,0-.58-.02-1.29-.02h-4.31v2.48Z"/><path d="M141.15,55.65h2.98c0,.5.1.82.3.96.15.09.34.15.57.17s.97.03,2.21.04c1.3,0,2.08-.01,2.34-.03.26-.01.47-.05.62-.11.23-.09.34-.35.34-.76,0-.3-.08-.5-.24-.6-.16-.1-.49-.16-.98-.17-.38,0-1.18-.03-2.41-.09-1.26-.06-2.07-.09-2.45-.1-.74-.02-1.31-.09-1.7-.21-.4-.12-.71-.3-.93-.56-.38-.43-.57-1.16-.57-2.17,0-1.14.22-1.94.65-2.41.33-.36.84-.6,1.52-.7.68-.1,2.07-.15,4.17-.15,1.48,0,2.52.04,3.12.13.93.13,1.56.39,1.91.77.34.39.52,1.04.52,1.95,0,.08,0,.24,0,.47h-2.98c0-.28-.03-.47-.07-.58-.04-.1-.11-.19-.22-.25-.13-.08-.37-.13-.7-.15-.33-.02-1.04-.03-2.13-.03-1.31,0-2.1.04-2.39.12-.29.08-.43.31-.43.68s.14.57.43.65c.24.06,1.32.12,3.26.18,1.63.05,2.72.11,3.27.17.55.07.99.19,1.31.38.37.22.63.52.78.91.15.39.23.94.23,1.67,0,.95-.13,1.66-.38,2.12-.19.34-.46.59-.8.76-.34.17-.82.28-1.44.34-.66.06-1.9.09-3.71.09-1.52,0-2.64-.04-3.36-.12-.72-.08-1.27-.22-1.63-.42-.38-.22-.64-.5-.79-.86-.14-.35-.22-.89-.22-1.62v-.47Z"/><path d="M167.26,58.99v-10.08h6.9c1.37,0,2.25.03,2.64.08,1,.13,1.68.45,2.03.96.35.51.53,1.42.53,2.73s-.15,2.12-.44,2.62c-.2.34-.47.6-.83.77-.35.18-.84.3-1.46.37-.44.05-1.25.07-2.45.07h-3.86v2.47h-3.07ZM170.33,54.01h3.84c.7,0,1.13-.02,1.28-.03.15-.01.29-.05.42-.12.16-.08.27-.21.32-.38.06-.17.09-.44.09-.79s-.04-.62-.11-.79c-.08-.17-.21-.29-.39-.36-.14-.05-.67-.09-1.61-.1h-3.84v2.58Z"/><path d="M199.8,48.76c2.18,0,3.67.05,4.49.16,1.18.16,1.9.72,2.16,1.68.18.66.27,1.77.27,3.34s-.09,2.69-.27,3.35c-.27.96-.99,1.52-2.16,1.68-.82.11-2.3.16-4.46.16s-3.7-.05-4.52-.16c-1.18-.16-1.9-.72-2.16-1.68-.18-.66-.27-1.8-.27-3.41s.09-2.63.27-3.29c.27-.96.99-1.52,2.16-1.68.81-.11,2.31-.16,4.49-.16M199.81,51.38c-1.63,0-2.61.04-2.94.13-.38.1-.63.32-.75.66-.12.34-.18,1.02-.18,2.04,0,.62.03,1.06.1,1.34.12.51.5.8,1.12.88.46.06,1.35.09,2.67.09,1.24,0,2.06-.02,2.47-.07.41-.04.71-.14.91-.29.18-.14.3-.34.36-.61.06-.27.1-.71.1-1.32,0-.72-.02-1.26-.07-1.6-.05-.34-.14-.59-.27-.77-.16-.22-.43-.35-.81-.4-.37-.05-1.27-.08-2.7-.08"/><path d="M220.64,58.99v-10.08h7.42c1.74,0,2.79.02,3.13.05.34.03.68.15,1,.34.38.23.65.55.79.96.14.41.21,1.04.21,1.92,0,.73-.05,1.27-.14,1.62-.09.34-.26.62-.51.83-.27.22-.68.37-1.23.46.64.05,1.11.23,1.39.55.16.19.27.42.31.7.04.27.07.85.07,1.72v.94h-3.03v-.54c0-.56-.02-.96-.06-1.2-.04-.24-.12-.42-.23-.55-.11-.12-.27-.19-.47-.23-.2-.03-.62-.05-1.25-.05h-4.33v2.56h-3.07ZM223.71,53.91h4.32c.75-.02,1.2-.03,1.35-.04.15-.01.27-.05.37-.11.13-.08.23-.21.28-.37s.08-.42.08-.75-.03-.58-.09-.74c-.06-.16-.17-.28-.32-.35-.11-.05-.24-.08-.39-.09-.15,0-.58-.02-1.29-.02h-4.31v2.48Z"/><polygon points="246.54 48.91 258.74 48.91 258.74 51.48 254.26 51.48 254.26 58.99 251.03 58.99 251.03 51.48 246.54 51.48 246.54 48.91"/><path d="M272.06,55.65h2.98c0,.5.1.82.3.96.15.09.34.15.57.17.23.02.97.03,2.21.04,1.3,0,2.08-.01,2.34-.03.26-.01.47-.05.62-.11.23-.09.34-.35.34-.76,0-.3-.08-.5-.24-.6-.16-.1-.49-.16-.98-.17-.38,0-1.18-.03-2.41-.09-1.26-.06-2.07-.09-2.45-.1-.74-.02-1.31-.09-1.7-.21-.4-.12-.71-.3-.93-.56-.38-.43-.57-1.16-.57-2.17,0-1.14.22-1.94.65-2.41.33-.36.84-.6,1.52-.7.68-.1,2.07-.15,4.17-.15,1.48,0,2.52.04,3.12.13.93.13,1.56.39,1.91.77.34.39.52,1.04.52,1.95,0,.08,0,.24,0,.47h-2.98c0-.28-.03-.47-.07-.58-.04-.1-.11-.19-.22-.25-.13-.08-.37-.13-.7-.15-.33-.02-1.04-.03-2.13-.03-1.31,0-2.1.04-2.39.12-.28.08-.43.31-.43.68s.14.57.43.65c.24.06,1.32.12,3.26.18,1.63.05,2.72.11,3.27.17.55.07.99.19,1.31.38.37.22.63.52.78.91s.23.94.23,1.67c0,.95-.13,1.66-.38,2.12-.19.34-.46.59-.8.76-.34.17-.82.28-1.44.34-.67.06-1.9.09-3.71.09-1.52,0-2.64-.04-3.36-.12-.72-.08-1.27-.22-1.63-.42-.38-.22-.64-.5-.79-.86-.14-.35-.22-.89-.22-1.62v-.47Z"/></g><rect x="3.6" y="4" width="280.8" height="2.25"/><rect x="3.6" y="64.65" width="280.8" height="2.25"/></svg>