<?xml version="1.0" encoding="UTF-8"?><svg id="Layer_1" xmlns="http://www.w3.org/2000/svg" viewBox="0 0 180 30.6"><defs><style>.cls-1{fill:#fff;}.cls-2{fill:#de3638;}.cls-3{fill:#f3ea31;}.cls-4{fill:#eaeaea;}</style></defs><path d="M169.58,4.77h8.13c.97,0,1.77-.8,1.77-1.79v-.64c0-.97-.78-1.79-1.73-1.83h-24.51c-.07,0-.13.01-.19.02h-11.6l-.5.5.04.38c.04.42.11.49,2.56,2.06.06.04.11.07.14.09,0,.03,0,.07,0,.12v.16c0,.56,0,1.37.01,2.25v.19c.01,1.66.03,4.45,0,4.74-.01.12-.18.45-1.41.77-1.51.4-3.12.46-4.53.16-.9-.19-1.98-.6-1.98-1.48V3.91c.01-.71.02-1.45-.5-2.26-.75-1.17-1.48-1.26-2.52-1.26h-9.53l-.23.23c-.73.72.6,2.37,1.2,3.04.17.19.37.28.56.34.01.13.02.28.03.45-2.82-2.44-7.71-4.05-13.27-4.05-8.09,0-14.78,3.42-15.7,7.82l-6.38,1.52c-.1-1.32-.22-2.94-.38-4.97h8.13c.97,0,1.77-.8,1.77-1.79v-.64c0-.97-.78-1.79-1.73-1.83h-24.51c-.45,0-.86.18-1.17.48-.73-.3-1.5-.48-2.29-.48h-11.36c-2.97,0-5.46,0-6.57,0-.95,0-1.71.74-1.74,1.69l-.02.64c-.01.48.16.94.5,1.28.34.35.79.54,1.27.54h10.01c-1.81.61-3.63,1.22-4.27,1.45-.28.1-.6.21-1.03.35-2.97.99-7.38,2.46-7.7,5.86h-8.34V2.18c0-.98-.79-1.78-1.77-1.78h-7.08c-.59,0-1.11.29-1.43.74-.32-.35-.78-.57-1.29-.57,0,0-23.42-.01-23.59-.01C2.4.57.5,1.98.5,3.79v12.32c0,.98.79,1.77,1.77,1.77h9.71c.98,0,1.77-.79,1.77-1.77v-3.02h11.61c.97,0,1.77-.79,1.77-1.77v-1.41c0-.97-.79-1.77-1.77-1.77h-11.61v-2.92h14.67c.35,0,.67-.11.95-.28v11.01c0,.98.79,1.78,1.77,1.78h18.34c.5,0,.95-.21,1.27-.55.82.41,1.84.63,3.06.63h18.59c1.8-.01,3.27-1.48,3.27-3.28v-.12l2.73-.28-.04,1.22c.05.93.71,2.36,2.02,2.45h7.28c1.3,0,2.17-1.35,2.17-2.61,0-.05-.03-.46-.16-2.2l4.2-.42-4.99,7.54,10.22-5.37c2.9,2.06,7.38,3.38,12.41,3.38,6.1,0,11.39-1.95,14.03-4.79.22.51.5.99.88,1.42,1.73,1.95,4.4,2.7,6.34,2.98,1.63.24,3.43.36,5.37.36.7,0,1.44-.02,2.19-.05,1.9-.08,4.35-.29,6.56-1.22,2.09-.89,4.27-3.03,4.36-5.39.09-1.29.04-4.09,0-6.14,0-.59-.02-1.16-.02-1.56.05,0,.1-.02.14-.02.08-.01.17-.03.26-.05.27.65.9,1.1,1.63,1.1h5.99l-.36,10.58c.05.93.71,2.36,2.02,2.45h7.28c1.3,0,2.17-1.35,2.17-2.61,0-.1-.12-1.78-.75-10.05l-.03-.37ZM103.19,8.45c.78-1.9,4.26-3.39,8.3-3.39,1.03,0,2.01.1,2.93.27l-11.23,3.12ZM116.15,5.78c2.28.76,3.81,2.05,3.81,3.47,0,2.27-3.88,4.19-8.47,4.19-2.71,0-5.16-.67-6.72-1.68l11.38-5.98ZM55.89,11.81c0-.49.31-.91.77-1.06l3.6-1.16c1.98-.64,4.06-1.31,5.3-1.71.03-.01.08-.02.12-.02.16,0,.34.06.47.16.09.06.12.12.12.14v3.78c0,.22-.1.45-.3.65-.29.29-.73.48-1.11.48l-7.45-.02c-.69,0-1.53-.57-1.53-1.24ZM75.4,4.77h3.31l-.26,7.59-2.79.67v-6.99c0-.41-.1-.84-.26-1.27Z"/><polygon points="6.43 26.17 4.85 22.72 .5 22.72 .5 30.11 3.42 30.11 3.39 26.28 5.32 30.11 7.55 30.11 9.46 26.33 9.42 30.11 12.34 30.11 12.34 22.72 8.01 22.72 6.43 26.17"/><path d="M27.96,22.74c-.54-.07-1.5-.11-2.91-.11s-2.37.04-2.91.11c-1.2.16-1.63.86-1.79,1.42-.13.46-.19,1.19-.19,2.22,0,1.08.06,1.83.19,2.3.16.56.59,1.27,1.79,1.43.55.07,1.51.11,2.93.11s2.34-.04,2.89-.11c1.2-.16,1.63-.86,1.79-1.43.13-.47.19-1.2.19-2.26s-.06-1.79-.19-2.25c-.16-.56-.59-1.26-1.79-1.42ZM26.99,26.6c0,.46-.03.65-.05.72,0,.04-.03.09-.05.11,0,0-.08.06-.33.09-.17.02-.56.04-1.51.04-.81,0-1.36-.02-1.63-.05-.24-.03-.26-.11-.28-.17-.02-.08-.05-.27-.05-.73,0-.8.06-1.06.09-1.13.01-.04.02-.07.12-.1.06-.02.36-.06,1.74-.06,1.15,0,1.52.03,1.64.04.12.02.17.05.18.06,0,0,.05.07.08.26.02.13.04.4.04.94Z"/><polygon points="37.42 25.35 40.27 25.35 40.27 30.11 43.31 30.11 43.31 25.35 46.15 25.35 46.15 22.72 37.42 22.72 37.42 25.35"/><path d="M61.44,22.74c-.54-.07-1.5-.11-2.91-.11s-2.37.04-2.91.11c-1.19.16-1.63.86-1.79,1.42-.13.46-.19,1.19-.19,2.22,0,1.08.06,1.83.19,2.3.16.56.59,1.26,1.79,1.43.55.07,1.51.11,2.93.11s2.34-.04,2.89-.11c1.2-.16,1.63-.86,1.79-1.43.13-.47.19-1.2.19-2.26s-.06-1.79-.19-2.25c-.16-.56-.59-1.26-1.79-1.42ZM56.63,27.32c-.02-.08-.05-.27-.05-.73,0-.8.06-1.06.09-1.13.01-.04.02-.07.12-.1.06-.02.36-.06,1.74-.06,1.15,0,1.52.03,1.64.04.12.02.17.05.18.06,0,0,.05.07.08.26s.04.51.04.94c0,.46-.03.65-.05.72,0,.04-.03.09-.05.11,0,0-.08.06-.33.09-.17.02-.56.04-1.51.04-.81,0-1.36-.02-1.63-.05-.24-.03-.26-.11-.28-.17Z"/><path d="M80.2,25.3c0-.62-.05-1.07-.16-1.38-.13-.37-.37-.66-.71-.87-.27-.17-.56-.26-.85-.29-.15-.01-.52-.03-2.03-.04h-5.21v7.39h2.95v-1.62h2.24c.36,0,.6,0,.71,0,0,0,.02.03.03.11.02.14.03.36.03.68v.84h2.92v-1.09c0-.78-.03-1.04-.05-1.17-.04-.26-.15-.49-.31-.69-.01-.01-.02-.03-.04-.04.17-.18.3-.41.37-.67.07-.26.1-.64.1-1.15ZM74.18,25.32h2.23c.43,0,.7,0,.8-.03,0,0,.03.08.03.29,0,.18-.01.27-.02.29-.09,0-.36.01-.8.02h-2.24v-.57Z"/><path d="M95.89,25.73h.38l.02-.8c0-.71-.15-1.23-.46-1.57-.3-.34-.8-.55-1.51-.65-.41-.06-1.08-.08-2.05-.08-1.36,0-2.25.03-2.72.1-.55.08-.97.28-1.26.6-.37.4-.54,1.01-.54,1.87,0,.77.16,1.33.48,1.7.03.04.07.07.1.11h-.64v.8c0,.53.06.93.18,1.22.14.33.38.6.72.79.29.16.69.27,1.22.33.48.05,1.21.08,2.18.08,1.18,0,1.97-.02,2.4-.06.46-.04.81-.13,1.09-.26.31-.15.55-.38.72-.69.21-.37.31-.89.31-1.59,0-.53-.06-.93-.18-1.24-.1-.25-.25-.46-.45-.64ZM93.39,25.16c-.26-.01-.57-.02-.9-.03-.38-.01-.68-.02-.93-.03.11,0,.23,0,.36,0,.67,0,1.11,0,1.31.02.07,0,.12.01.16.02,0,0,0,.02,0,.03ZM91.81,27.62c.79.04,1.3.06,1.54.06h0c.13,0,.23.01.28.02,0,0,0,0,0,.01-.03,0-.08,0-.13.01-.16,0-.65.01-1.46.02-.77,0-1.22-.01-1.37-.02-.03,0-.06,0-.08,0,0-.03-.01-.07-.01-.14.28.01.69.03,1.23.05Z"/><path d="M110.86,22.78c-.28-.04-.85-.06-1.74-.06h-4.88v7.39h2.95v-1.56h1.95c.79,0,1.31-.02,1.61-.05.45-.05.81-.14,1.09-.28.31-.16.56-.39.73-.69.23-.4.34-1.03.34-1.91,0-.94-.14-1.6-.42-2.01-.31-.44-.85-.72-1.63-.82ZM109.96,25.62c0,.25-.03.34-.07.32-.09,0-.35.01-.77.02h-1.93v-.63h1.93c.61,0,.81.03.82,0,0,.03.02.11.02.29Z"/><path d="M128.28,22.74c-.54-.07-1.5-.11-2.91-.11s-2.37.04-2.91.11c-1.2.16-1.63.86-1.79,1.42-.13.46-.19,1.19-.19,2.22,0,1.08.06,1.83.19,2.3.16.56.59,1.27,1.79,1.43.55.07,1.51.11,2.93.11s2.34-.04,2.89-.11c1.2-.16,1.63-.86,1.79-1.43.13-.47.19-1.2.19-2.26s-.06-1.79-.19-2.25c-.15-.56-.59-1.26-1.79-1.43ZM123.48,27.32c-.02-.08-.05-.28-.05-.74,0-.8.06-1.06.08-1.13.01-.04.02-.07.12-.1.06-.02.36-.06,1.74-.06,1.15,0,1.52.03,1.64.04.12.02.17.05.18.06,0,0,.05.07.08.26.02.13.04.4.04.94,0,.46-.03.65-.05.72,0,.04-.03.09-.05.11,0,0-.08.06-.33.09-.16.02-.56.04-1.51.04-.81,0-1.36-.02-1.63-.05-.24-.03-.26-.11-.28-.17Z"/><path d="M147.04,25.3c0-.62-.05-1.07-.16-1.38-.13-.37-.37-.66-.71-.87-.27-.17-.55-.26-.85-.29-.15-.01-.52-.03-2.03-.04h-5.2v7.39h2.95v-1.62h2.24c.36,0,.6,0,.71,0,0,0,.02.03.03.11.02.14.03.36.03.68v.84h2.92v-1.09c0-.78-.03-1.04-.05-1.17-.04-.26-.15-.49-.31-.69-.01-.01-.02-.03-.04-.04.17-.18.3-.4.37-.67.07-.26.1-.64.1-1.15ZM141.03,25.32h2.23c.43,0,.7,0,.8-.03,0,0,.03.07.03.29,0,.18-.01.27-.02.29-.09,0-.36.01-.8.02h-2.24v-.57Z"/><polygon points="154.5 25.35 157.35 25.35 157.35 30.11 160.39 30.11 160.39 25.35 163.24 25.35 163.24 22.72 154.5 22.72 154.5 25.35"/><path d="M179.32,26.37c-.1-.25-.25-.46-.45-.64h.38l.02-.8c0-.71-.15-1.23-.46-1.57-.3-.34-.8-.55-1.51-.65-.41-.06-1.08-.08-2.05-.08-1.36,0-2.25.03-2.72.1-.55.08-.97.28-1.26.6-.37.4-.54,1.01-.54,1.87,0,.77.16,1.33.48,1.7.03.04.07.07.1.11h-.64v.8c0,.53.06.93.18,1.22.14.33.38.6.72.79.29.16.69.27,1.22.33.48.05,1.21.08,2.18.08,1.18,0,1.97-.02,2.4-.06.46-.04.81-.13,1.09-.26.31-.15.55-.38.72-.69.21-.37.31-.89.31-1.59,0-.52-.06-.93-.18-1.24ZM176.38,25.16c-.26-.01-.57-.02-.9-.03-.38-.01-.68-.02-.93-.03.11,0,.23,0,.36,0,.67,0,1.11,0,1.31.02.07,0,.12.01.16.02,0,0,0,.02,0,.03ZM174.79,27.62c.79.04,1.3.06,1.54.06h0c.13,0,.23.01.28.02,0,0,0,0,0,.01-.03,0-.08,0-.13.01-.16,0-.65.01-1.46.02-.77,0-1.22-.01-1.37-.02-.03,0-.06,0-.08,0,0-.03-.01-.07-.01-.14.28.01.69.03,1.23.05Z"/><path class="cls-1" d="M111.5.89c-8.45,0-15.32,3.75-15.32,8.36s6.87,8.37,15.32,8.37,15.32-3.75,15.32-8.37S119.95.89,111.5.89M111.49,13.94c-4.94,0-8.97-2.1-8.97-4.69s4.02-4.69,8.97-4.69,8.97,2.1,8.97,4.69-4.02,4.69-8.97,4.69"/><path class="cls-2" d="M111.5,1.49c-8.12,0-14.73,3.49-14.73,7.77s6.61,7.77,14.73,7.77,14.73-3.49,14.73-7.77-6.61-7.77-14.73-7.77M111.49,14.53c-5.27,0-9.56-2.37-9.56-5.28s4.29-5.28,9.56-5.28,9.56,2.37,9.56,5.28-4.29,5.28-9.56,5.28"/><path class="cls-2" d="M69.24,1.01h-11.36c-2.96,0-5.46,0-6.57,0-.68,0-1.22.53-1.24,1.21l-.02.64c-.01.35.12.67.36.92.24.25.56.39.91.39h13.09c-2.3.77-6.18,2.06-7.19,2.42-.31.11-.66.23-1.04.35-2.99.99-7.51,2.49-7.39,5.93.11,2.96,1.77,4.46,4.96,4.46h.05s14.55,0,18.59-.01c1.53,0,2.77-1.24,2.77-2.77V6.04c0-2.15-2.93-5.03-5.92-5.03M64.86,13.57l-7.45-.02c-.94,0-2.03-.76-2.03-1.74,0-.7.45-1.32,1.12-1.54.9-.29,2.12-.68,3.4-1.1,2.04-.66,4.22-1.37,5.51-1.77.08-.03.17-.04.27-.04.26,0,.55.09.77.25.12.09.33.28.33.54v3.78c0,.35-.15.7-.45,1-.39.39-.95.63-1.47.63"/><path class="cls-1" d="M69.24,1.6h-11.36c-2.96,0-5.46,0-6.56,0-.35,0-.64.28-.65.63l-.02.63c0,.18.06.36.19.49.13.13.3.2.48.2h15.01v.58c-.07.02-7.48,2.48-8.91,2.99-.32.11-.67.23-1.05.36-2.82.94-7.09,2.35-6.98,5.34.09,2.65,1.48,3.89,4.36,3.89h.05s14.55,0,18.59-.01c1.2,0,2.17-.98,2.17-2.18V6.04c0-2.14-3.13-4.44-5.33-4.44M66.75,13.36c-.5.5-1.21.8-1.88.8l-7.45-.02c-1.24,0-2.62-1-2.62-2.33,0-.96.62-1.81,1.53-2.1.9-.29,2.12-.68,3.4-1.1,2.04-.66,4.22-1.37,5.51-1.78.48-.15,1.12-.03,1.57.3.37.27.57.63.57,1.02v3.78c.01.51-.21,1.01-.62,1.42"/><path class="cls-2" d="M97.19,1.01h-24.49c-.69,0-1.25.59-1.25,1.33v.64c0,.71.57,1.29,1.27,1.29h6.51l-.37,11.06c.04.79.58,1.91,1.52,1.98h7.28c1,0,1.67-1.09,1.67-2.11,0-.16-.64-8.52-.82-10.93h8.67c.7,0,1.27-.58,1.27-1.29v-.64c0-.69-.57-1.3-1.25-1.33"/><path class="cls-1" d="M97.18,1.61h-24.48c-.35,0-.66.34-.66.73v.64c0,.38.3.69.67.69h7.12l-.39,11.65c.03.53.41,1.35.95,1.39h7.26c.69,0,1.07-.9,1.07-1.52,0-.22-.55-7.42-.84-11.2l-.02-.32h9.31c.37,0,.67-.31.67-.69v-.64c0-.38-.31-.72-.67-.73"/><path class="cls-1" d="M177.73,1.01h-24.49c-.69,0-1.25.59-1.25,1.33v.64c0,.71.57,1.29,1.27,1.29h6.51l-.37,11.06c.04.79.58,1.91,1.52,1.98h7.28c1,0,1.67-1.09,1.67-2.11,0-.16-.64-8.52-.82-10.93h8.67c.7,0,1.27-.58,1.27-1.29v-.64c0-.69-.57-1.3-1.25-1.33"/><path class="cls-2" d="M177.72,1.61h-24.48c-.35,0-.65.34-.65.73v.64c0,.38.3.69.67.69h7.12l-.39,11.65c.03.53.41,1.35.95,1.39h7.26c.69,0,1.07-.9,1.07-1.52,0-.22-.55-7.42-.84-11.2l-.02-.32h9.31c.37,0,.67-.31.67-.69v-.64c0-.38-.31-.72-.67-.73"/><path class="cls-1" d="M141.65,1.03l-.19.19v.14c.03.16.04.22,2.35,1.69q.38.24.37.63v.16c0,.56,0,1.37.01,2.25.01,1.97.03,4.67,0,5-.08.67-1.05,1-1.77,1.19-1.59.42-3.26.48-4.76.17-1.09-.23-2.38-.76-2.38-1.97v-6.26c0-.1,0-.21,0-.3,0-.67.02-1.3-.43-1.99-.63-.98-1.18-1.03-2.1-1.03h-9.32l-.09.09c-.44.43,1.21,2.33,1.23,2.35.15.17.36.21.52.24.04,0,.08.01.11.02.09.38.11,1.79.13,2.42,0,.27,0,.49.02.63.02.46.02.94.02,1.46,0,2.2,0,4.69,1.44,6.32,1.63,1.83,4.18,2.55,6.04,2.82,1.6.24,3.38.36,5.3.36.69,0,1.42-.02,2.16-.05,1.85-.08,4.25-.28,6.38-1.18,1.95-.82,3.97-2.8,4.06-4.96.08-1.26.04-4.06,0-6.1-.01-.84-.03-1.63-.02-1.98.18-.05.37-.08.57-.11.35-.06.72-.11,1.08-.28.4-.18.65-.43.77-.75.02-.04.11-.36.18-.57,0-.02.01-.05.02-.07l1.35-.52h-13.04Z"/><path class="cls-2" d="M142.71,1.63c.55.37,1.23.81,1.41.93.6.38.65.53.65,1.14v.15c0,.56,0,1.37.01,2.25.02,2.76.03,4.73-.01,5.07-.14,1.15-1.65,1.55-2.21,1.7-.97.26-1.96.39-2.93.39-.72,0-1.43-.07-2.1-.21-1.84-.39-2.85-1.29-2.85-2.56v-6.27c0-.11,0-.21,0-.31,0-.65.01-1.12-.33-1.66-.46-.72-.75-.75-1.6-.75h-8.76c.29.47.89,1.29,1.03,1.45.02.02.12.04.18.05.11.02.24.05.36.11.23.13.31.38.36,2.9,0,.26,0,.48.01.62.02.47.02.96.02,1.48,0,2.09,0,4.47,1.29,5.93,1.51,1.7,3.92,2.37,5.68,2.63,1.57.23,3.33.35,5.21.35.69,0,1.41-.02,2.14-.05,1.8-.07,4.13-.27,6.18-1.14,1.78-.75,3.62-2.52,3.7-4.45.08-1.24.04-4.03,0-6.06q-.04-2.28.05-2.4l.05-.07.08-.03c.29-.1.58-.15.86-.19.33-.05.64-.1.92-.23.25-.11.4-.25.46-.41.01-.03.06-.2.11-.36h-9.98Z"/><path class="cls-2" d="M28.41,1.08s-23.42-.01-23.59-.01c-2.14,0-3.82,1.2-3.82,2.72v12.32c0,.7.57,1.27,1.27,1.27h9.71c.7,0,1.27-.57,1.27-1.27v-3.52h12.11c.7,0,1.27-.57,1.27-1.27v-1.41c0-.7-.57-1.27-1.27-1.27h-12.11v-3.92h15.17c.7,0,1.27-.57,1.27-1.27v-1.12c0-.7-.57-1.27-1.27-1.27"/><path class="cls-1" d="M28.41,1.67s-23.42-.01-23.59-.01c-1.78,0-3.22.96-3.22,2.13v12.32c0,.37.3.67.67.67h9.71c.37,0,.67-.3.67-.67v-4.11h12.7c.37,0,.67-.3.67-.67v-1.41c0-.37-.3-.67-.67-.67h-12.7v-5.11h15.76c.37,0,.67-.3.67-.67v-1.12c0-.37-.3-.67-.67-.67"/><path class="cls-2" d="M49.47,12.82h-9.99V2.18c0-.7-.57-1.28-1.27-1.28h-7.08c-.7,0-1.27.57-1.27,1.28v13.77c0,.7.57,1.28,1.27,1.28h18.34c.7,0,1.27-.57,1.27-1.28v-1.86c0-.7-.57-1.28-1.27-1.28"/><path class="cls-1" d="M49.47,13.41h-10.58V2.18c0-.38-.3-.68-.67-.68h-7.08c-.37,0-.67.31-.67.68v13.77c0,.38.3.68.67.68h18.34c.37,0,.67-.31.67-.68v-1.86c0-.38-.3-.68-.67-.68"/><polygon points="115.5 5.56 98.46 10.29 100.67 7.57 73.04 14.17 94.86 11.96 90.36 18.76 115.5 5.56"/><polygon class="cls-3" points="111.31 7.22 91.79 17.47 95.49 11.88 95.81 11.38 95.22 11.44 80.1 12.97 99.41 8.36 97.7 10.46 97.15 11.15 98 10.91 111.31 7.22"/><polygon class="cls-4" points="1 23.22 4.53 23.22 6.43 27.37 8.33 23.22 11.84 23.22 11.84 29.61 9.92 29.61 9.97 24.83 9.65 24.83 7.24 29.61 5.63 29.61 3.21 24.83 2.87 24.83 2.92 29.61 1 29.61 1 23.22"/><path class="cls-4" d="M25.05,23.13c1.38,0,2.33.03,2.85.1.75.1,1.2.45,1.37,1.06.11.42.17,1.12.17,2.12s-.06,1.71-.17,2.13c-.17.61-.63.96-1.37,1.06-.52.07-1.46.1-2.83.1s-2.35-.03-2.87-.1c-.75-.1-1.2-.45-1.37-1.06-.12-.42-.17-1.14-.17-2.16s.06-1.67.17-2.08c.17-.61.63-.96,1.37-1.06.52-.07,1.46-.1,2.85-.1M25.05,24.79c-1.03,0-1.65.03-1.86.08-.24.06-.4.2-.47.42-.08.22-.11.65-.11,1.29,0,.39.02.67.06.85.08.32.31.51.71.56.29.04.85.06,1.69.06.78,0,1.3-.01,1.56-.04.26-.03.45-.09.58-.19.11-.09.19-.22.23-.39.04-.17.06-.45.06-.84,0-.46-.02-.8-.05-1.01-.03-.22-.09-.38-.17-.49-.1-.14-.27-.22-.51-.26-.24-.03-.81-.05-1.71-.05"/><polygon class="cls-4" points="37.92 23.22 45.65 23.22 45.65 24.85 42.81 24.85 42.81 29.61 40.77 29.61 40.77 24.85 37.92 24.85 37.92 23.22"/><path class="cls-4" d="M58.52,23.13c1.38,0,2.33.03,2.85.1.75.1,1.2.45,1.37,1.06.11.42.17,1.12.17,2.12s-.06,1.71-.17,2.13c-.17.61-.63.96-1.37,1.06-.52.07-1.46.1-2.83.1s-2.35-.03-2.87-.1c-.75-.1-1.2-.45-1.37-1.06-.12-.42-.17-1.14-.17-2.16s.06-1.67.17-2.08c.17-.61.63-.96,1.37-1.06.52-.07,1.46-.1,2.85-.1M58.53,24.79c-1.03,0-1.65.03-1.86.08-.24.06-.4.2-.47.42-.08.22-.11.65-.11,1.29,0,.39.02.67.06.85.08.32.31.51.71.56.29.04.85.06,1.69.06.78,0,1.3-.01,1.56-.04.26-.03.45-.09.58-.19.11-.09.19-.22.23-.39.04-.17.06-.45.06-.84,0-.46-.02-.8-.05-1.01-.03-.22-.09-.38-.17-.49-.1-.14-.27-.22-.51-.26-.24-.03-.81-.05-1.71-.05"/><path class="cls-4" d="M71.74,29.61v-6.39h4.7c1.1,0,1.77.01,1.98.03.22.02.43.09.63.22.24.15.41.35.5.61.09.26.14.66.14,1.21,0,.47-.03.81-.09,1.03-.06.22-.17.39-.32.53-.17.14-.43.24-.78.29.41.03.7.15.88.35.1.12.17.27.2.44.03.17.04.54.04,1.09v.59h-1.92v-.34c0-.36-.01-.61-.04-.76-.03-.15-.08-.27-.15-.35-.07-.07-.17-.12-.3-.14-.13-.02-.39-.03-.79-.03h-2.74v1.62h-1.95ZM73.68,26.39h2.74c.48,0,.76-.02.85-.03.09,0,.17-.03.24-.07.08-.05.14-.13.18-.24.03-.1.05-.26.05-.48s-.02-.37-.06-.47c-.04-.1-.11-.18-.2-.22-.07-.03-.15-.05-.25-.06-.1,0-.37-.01-.82-.01h-2.73v1.57Z"/><path class="cls-4" d="M88.19,27.5h1.89c0,.32.06.52.19.61.09.06.21.09.36.1s.62.02,1.4.03c.82,0,1.32,0,1.48-.02.17,0,.3-.03.39-.07.14-.06.22-.22.22-.48,0-.19-.05-.32-.15-.38-.1-.06-.31-.1-.62-.11-.24,0-.75-.02-1.53-.06-.8-.04-1.31-.06-1.55-.07-.47-.01-.83-.06-1.08-.13-.25-.07-.45-.19-.59-.36-.24-.28-.36-.73-.36-1.38,0-.72.14-1.23.41-1.53.21-.23.53-.38.96-.44.43-.06,1.32-.1,2.65-.1.94,0,1.6.03,1.98.08.59.08.99.24,1.21.49.22.24.33.66.33,1.24,0,.05,0,.15,0,.3h-1.89c0-.18-.02-.3-.04-.37-.02-.07-.07-.12-.14-.16-.08-.05-.23-.08-.44-.1-.21-.01-.66-.02-1.35-.02-.83,0-1.33.03-1.51.08-.18.05-.27.19-.27.43s.09.36.27.41c.15.04.84.08,2.06.12,1.03.03,1.72.07,2.07.11.35.04.62.12.83.24.23.14.4.33.5.58.1.25.15.6.15,1.06,0,.6-.08,1.05-.24,1.34-.12.22-.29.38-.51.48-.22.11-.52.18-.92.21-.42.04-1.21.06-2.35.06-.96,0-1.67-.03-2.13-.07-.46-.05-.8-.14-1.03-.27-.24-.14-.41-.32-.5-.54-.09-.22-.14-.57-.14-1.03v-.3Z"/><path class="cls-4" d="M104.74,29.61v-6.39h4.38c.87,0,1.43.02,1.68.05.63.08,1.06.29,1.28.61.22.32.34.9.34,1.73s-.09,1.34-.28,1.66c-.13.22-.3.38-.52.49-.22.11-.53.19-.92.23-.28.03-.8.05-1.55.05h-2.45v1.56h-1.95ZM106.69,26.45h2.43c.44,0,.71,0,.81-.02.1,0,.19-.03.26-.08.1-.05.17-.13.21-.24.04-.11.06-.28.06-.5s-.02-.39-.07-.5c-.05-.11-.13-.18-.25-.23-.09-.03-.43-.06-1.02-.07h-2.43v1.63Z"/><path class="cls-4" d="M125.37,23.13c1.38,0,2.33.03,2.85.1.75.1,1.2.45,1.37,1.06.11.42.17,1.12.17,2.12s-.06,1.71-.17,2.13c-.17.61-.63.96-1.37,1.06-.52.07-1.46.1-2.83.1s-2.35-.03-2.86-.1c-.75-.1-1.2-.45-1.37-1.06-.12-.42-.17-1.14-.17-2.16s.06-1.67.17-2.08c.17-.61.63-.96,1.37-1.06.51-.07,1.46-.1,2.85-.1M125.38,24.79c-1.03,0-1.65.03-1.86.08-.24.06-.4.2-.47.42-.08.22-.11.65-.11,1.29,0,.39.02.67.06.85.08.32.31.51.71.56.29.04.85.06,1.69.06.78,0,1.3-.01,1.56-.04.26-.03.45-.09.58-.19.11-.09.19-.22.23-.39.04-.17.06-.45.06-.84,0-.46-.02-.8-.05-1.01-.03-.22-.09-.38-.17-.49-.1-.14-.27-.22-.51-.26-.24-.03-.81-.05-1.71-.05"/><path class="cls-4" d="M138.58,29.61v-6.39h4.7c1.1,0,1.77.01,1.98.03.22.02.43.09.63.22.24.15.41.35.5.61.09.26.14.66.14,1.21,0,.47-.03.81-.09,1.03-.06.22-.17.39-.33.53-.17.14-.43.24-.78.29.41.03.7.15.88.35.1.12.17.27.2.44.03.17.04.54.04,1.09v.59h-1.92v-.34c0-.36-.01-.61-.04-.76-.03-.15-.08-.27-.15-.35-.07-.07-.17-.12-.3-.14-.13-.02-.39-.03-.79-.03h-2.74v1.62h-1.95ZM140.53,26.39h2.74c.48,0,.76-.02.85-.03.09,0,.17-.03.24-.07.08-.05.14-.13.18-.24s.05-.26.05-.48-.02-.37-.06-.47c-.04-.1-.11-.18-.2-.22-.07-.03-.15-.05-.25-.06-.1,0-.37-.01-.82-.01h-2.73v1.57Z"/><polygon class="cls-4" points="155 23.22 162.74 23.22 162.74 24.85 159.89 24.85 159.89 29.61 157.85 29.61 157.85 24.85 155 24.85 155 23.22"/><path class="cls-4" d="M171.18,27.5h1.89c0,.32.06.52.19.61.09.06.21.09.36.1.15.01.62.02,1.4.03.82,0,1.32,0,1.48-.02.16,0,.3-.03.39-.07.14-.06.22-.22.22-.48,0-.19-.05-.32-.15-.38-.1-.06-.31-.1-.62-.11-.24,0-.75-.02-1.53-.06-.8-.04-1.31-.06-1.55-.07-.47-.01-.83-.06-1.08-.13-.25-.07-.45-.19-.59-.36-.24-.28-.36-.73-.36-1.38,0-.72.14-1.23.41-1.53.21-.23.53-.38.96-.44.43-.06,1.32-.1,2.65-.1.94,0,1.6.03,1.98.08.59.08.99.24,1.21.49.22.24.33.66.33,1.24,0,.05,0,.15,0,.3h-1.89c0-.18-.02-.3-.04-.37-.02-.07-.07-.12-.14-.16-.08-.05-.23-.08-.45-.1-.21-.01-.66-.02-1.35-.02-.83,0-1.33.03-1.51.08-.18.05-.27.19-.27.43s.09.36.27.41c.15.04.84.08,2.06.12,1.03.03,1.72.07,2.07.11.35.04.62.12.83.24.23.14.4.33.5.58s.15.6.15,1.06c0,.6-.08,1.05-.24,1.34-.12.22-.29.38-.51.48-.22.11-.52.18-.91.21-.42.04-1.21.06-2.35.06-.96,0-1.67-.03-2.13-.07-.46-.05-.8-.14-1.03-.27-.24-.14-.41-.32-.5-.54-.09-.22-.14-.57-.14-1.03v-.3Z"/></svg>